<?xml version="1.0" standalone="no"?>
<!DOCTYPE svg PUBLIC "-//W3C//DTD SVG 1.1//EN" "http://www.w3.org/Graphics/SVG/1.1/DTD/svg11.dtd" >
<svg xmlns="http://www.w3.org/2000/svg">
<metadata></metadata>
<defs>
<font id="px_groteskbold" horiz-adv-x="1228" >
<font-face units-per-em="2048" ascent="1649" descent="-399" />
<missing-glyph horiz-adv-x="503" />
<glyph unicode="&#xfb01;" horiz-adv-x="1355" d="M942 0v846h-422v-846h-256v846h-205v198h205v349h516v-199h-260v-150h678v-1044h-256zM1202 1165h-264v228h264v-228z" />
<glyph unicode="&#xfb02;" horiz-adv-x="1355" d="M520 1044h240v-198h-240v-846h-256v846h-205v198h205v349h934v-1393h-256v1194h-422v-150z" />
<glyph horiz-adv-x="0" />
<glyph unicode="&#xd;" horiz-adv-x="0" />
<glyph horiz-adv-x="0" />
<glyph horiz-adv-x="0" />
<glyph unicode=" "  horiz-adv-x="503" />
<glyph unicode="&#x09;" horiz-adv-x="503" />
<glyph unicode="&#xa0;" horiz-adv-x="503" />
<glyph unicode="!" horiz-adv-x="620" d="M459 0h-297v295h297v-295zM223 406l-41 305v682h256v-682l-41 -305h-174z" />
<glyph unicode="&#x22;" horiz-adv-x="913" d="M762 887h-227v536h227v-536zM379 887h-227v536h227v-536z" />
<glyph unicode="#" horiz-adv-x="1345" d="M532 543h236l39 305h-236zM1194 344h-254l-49 -344h-205l49 344h-235l-49 -344h-205l49 344h-191v199h222l43 305h-219v196h247l52 349h204l-51 -349h236l51 349h205l-52 -349h201v-196h-229l-43 -305h223v-199z" />
<glyph unicode="$" horiz-adv-x="1208" d="M375 1038q0 -66 30.5 -110.5t106.5 -71.5v340q-59 -16 -98 -55.5t-39 -102.5zM864 375q0 72 -41 120t-139 72v-374q80 14 130 59t50 123zM512 -25q-86 10 -161 42t-132 86.5t-92 132t-43 180.5h256q8 -92 54 -145.5t118 -73.5v413l-55 15q-170 41 -254 146.5t-84 258.5 q0 78 29.5 143.5t82 116.5t125 84t156.5 43v170h172v-170q80 -10 148.5 -39.5t120 -80t83 -121t37.5 -162.5h-256q-6 82 -43 123t-90 57v-383l86 -20q166 -41 260 -143.5t94 -268.5q0 -90 -32.5 -162t-92 -123t-140.5 -81.5t-175 -39.5v-168h-172v170z" />
<glyph unicode="%" horiz-adv-x="1658" d="M1278 127q113 0 113 102v256q0 104 -113 105q-113 0 -113 -105v-256q0 -102 113 -102zM1579 358q0 -80 -16.5 -148.5t-53 -118.5t-94 -78.5t-137.5 -28.5t-137.5 28.5t-94 78.5t-53 119t-16.5 148q0 80 16.5 148.5t53 119t94 79t137.5 28.5t137.5 -28.5t94 -79t53 -119 t16.5 -148.5zM381 803q113 0 113 102v256q0 104 -113 105q-113 0 -113 -105v-256q0 -102 113 -102zM682 1034q0 -80 -16.5 -148.5t-53.5 -118.5t-94 -79t-137 -29t-137.5 29t-94 79t-53 118.5t-16.5 148.5t16.5 148.5t53 119t94 79t137.5 28.5t137 -28.5t94 -79t53.5 -119 t16.5 -148.5zM1163 1393h205l-872 -1393h-205z" />
<glyph unicode="&#x26;" horiz-adv-x="1310" d="M848 551h10v192h236v-499l192 -244h-297l-78 100q-84 -70 -171 -97.5t-210 -27.5q-94 0 -171.5 22.5t-133 68t-86 115t-30.5 163.5q0 121 50 202t136 148l94 74q-88 106 -136 182t-48 160q0 74 32.5 132t87 98t125 61.5t146.5 21.5q80 0 147.5 -19.5t118.5 -57t80 -95 t29 -133.5q0 -104 -73 -196.5t-189 -180.5zM578 913q66 59 100.5 105.5t34.5 107.5q0 47 -35 73t-88 26t-90 -29t-37 -76q0 -45 28 -91t87 -116zM375 297q0 -53 51 -88t129 -35q72 0 124 23.5t97 70.5l-252 326l-114 -90q-23 -18 -29 -42t-6 -54v-111z" />
<glyph unicode="'" horiz-adv-x="530" d="M379 887h-227v536h227v-536z" />
<glyph unicode="(" horiz-adv-x="696" d="M362 344q0 -170 77 -344t208 -348h-235q-70 90 -126.5 186t-96 206t-61.5 237t-22 278q0 152 22 279t61.5 236.5t96 205.5t126.5 186h235q-139 -188 -212 -355t-73 -337v-430z" />
<glyph unicode=")" horiz-adv-x="696" d="M334 795q0 154 -73 318.5t-212 352.5h236q70 -90 126 -186t96 -205.5t61.5 -236.5t21.5 -279t-21.5 -278.5t-61.5 -236.5t-96.5 -206t-125.5 -186h-236q131 174 208 346t77 326v471z" />
<glyph unicode="*" horiz-adv-x="905" d="M524 922v-226h-143v226l-195 -113l-71 123l194 112l-194 113l71 123l195 -113v226h143v-226l195 113l72 -123l-197 -113l197 -112l-72 -123z" />
<glyph unicode="+" d="M82 424v197h430v423h205v-423h430v-197h-430v-424h-205v424h-430z" />
<glyph unicode="," horiz-adv-x="585" d="M145 0v295h295v-295l-153 -270h-135l147 270h-154z" />
<glyph unicode="-" horiz-adv-x="864" d="M145 659h574v-208h-574v208z" />
<glyph unicode="." horiz-adv-x="585" d="M440 0h-295v295h295v-295z" />
<glyph unicode="/" horiz-adv-x="1001" d="M313 0h-266l639 1393h266z" />
<glyph unicode="0" horiz-adv-x="1265" d="M633 184q238 0 237 242v541q0 242 -237 241q-238 0 -238 -241v-541q0 -242 238 -242zM1147 696q0 -154 -22.5 -287t-81 -230t-158 -153.5t-252.5 -56.5q-154 0 -253 56.5t-157.5 153.5t-81 230.5t-22.5 286.5q0 154 22.5 287t81 230.5t157.5 153.5t253 56t253 -56 t157.5 -153.5t81 -230.5t22.5 -287z" />
<glyph unicode="1" horiz-adv-x="890" d="M453 965h-379v215h379v213h256v-1393h-256v965z" />
<glyph unicode="2" horiz-adv-x="1193" d="M438 215h647v-215h-974v217l561 547q63 59 99 119.5t36 130.5q0 92 -57.5 143t-147.5 51q-106 0 -165.5 -58t-59.5 -167h-260q0 100 36.5 181t103.5 138.5t157 89t196 31.5t191.5 -29.5t144 -83t89 -129t30.5 -167.5q0 -61 -17.5 -117.5t-45 -107t-64.5 -93.5t-76 -80 l-424 -397v-4z" />
<glyph unicode="3" d="M422 608v213h274q68 0 94.5 33t26.5 86v111q0 80 -58.5 118.5t-144.5 38.5q-96 0 -156.5 -43t-66.5 -139h-260q0 92 35 166t98.5 125t152.5 78.5t197 27.5q106 0 194.5 -26.5t151 -75.5t96.5 -118.5t34 -153.5q0 -123 -50.5 -204t-152.5 -128q113 -47 170 -125t57 -213 q0 -96 -37 -173t-104.5 -129t-160.5 -80t-204 -28q-109 0 -201 27t-161.5 81t-108.5 136t-39 193h260q4 -117 74 -169.5t174 -52.5q106 0 171 51.5t65 124.5v125q0 123 -131 123h-289z" />
<glyph unicode="4" horiz-adv-x="1224" d="M317 541h371v538zM688 0v328h-614v213l585 852h285v-852h201v-213h-201v-328h-256z" />
<glyph unicode="5" horiz-adv-x="1204" d="M123 590l55 803h846v-213h-614l-25 -375q49 61 119.5 97t163.5 36q100 0 181 -35t138 -97.5t89 -149.5t32 -191q0 -115 -35 -207t-100.5 -156.5t-158.5 -98.5t-208 -34q-238 0 -363.5 108.5t-142.5 307.5h260q12 -115 76 -159t166 -44t165.5 50.5t63.5 136.5v184 q0 92 -67.5 132t-159.5 40q-70 0 -130 -35t-91 -100h-260z" />
<glyph unicode="6" horiz-adv-x="1251" d="M637 182q117 0 177 58.5t60 154.5v117q0 96 -60 143t-177 47t-180.5 -47t-63.5 -143v-117q0 -96 63.5 -154.5t180.5 -58.5zM637 -31q-272 0 -396 172t-124 527q0 164 27.5 303t90 239.5t163 156.5t245.5 56q211 0 334 -98t139 -278h-260q-10 86 -66.5 124.5t-148.5 38.5 q-117 0 -182.5 -76.5t-65.5 -199.5v-152q51 66 124 99.5t179 33.5q102 0 186.5 -32.5t143.5 -92t92 -143.5t33 -186q0 -96 -32 -185.5t-95 -157t-159.5 -108.5t-227.5 -41z" />
<glyph unicode="7" horiz-adv-x="1118" d="M532 0h-282l538 1180h-720v213h993v-205z" />
<glyph unicode="8" horiz-adv-x="1265" d="M387 342q0 -39 19.5 -68.5t52.5 -49t78 -30t96 -10.5t96 10.5t78 30t52.5 49t19.5 68.5v109q0 76 -72 117.5t-174 41.5t-174 -42t-72 -117v-109zM842 1063q0 39 -18.5 66.5t-48.5 45t-66.5 25.5t-75.5 8t-76 -8t-66.5 -25.5t-48 -45t-18.5 -66.5v-90q0 -39 18.5 -66.5 t48 -46t66.5 -27t76 -8.5t75.5 8.5t66.5 27t48.5 46t18.5 66.5v90zM633 -31q-104 0 -198.5 24.5t-166 74t-114.5 125t-43 180.5q0 129 67.5 219t186.5 133q-213 92 -213 322q0 88 38.5 157.5t105 118.5t154 74.5t183.5 25.5t183 -25.5t153.5 -74.5t105.5 -118.5t39 -157.5 q0 -229 -213 -322q119 -43 186.5 -133t67.5 -219q0 -104 -43 -180t-114.5 -125.5t-166 -74t-198.5 -24.5z" />
<glyph unicode="9" horiz-adv-x="1251" d="M614 1210q-117 0 -177 -58t-60 -155v-116q0 -96 60.5 -143.5t176.5 -47.5q117 0 180.5 47t63.5 144v116q0 96 -63.5 154.5t-180.5 58.5zM614 1423q272 0 396.5 -173t124.5 -525q0 -164 -28 -303t-90.5 -239.5t-162.5 -157t-246 -56.5q-211 0 -333.5 98.5t-139.5 278.5 h260q10 -86 66.5 -125t148.5 -39q117 0 182.5 77t65.5 200v151q-51 -66 -123.5 -99.5t-179.5 -33.5q-102 0 -186 33t-143.5 92.5t-92.5 143t-33 186.5q0 96 32 185t95.5 156.5t159.5 108.5t227 41z" />
<glyph unicode=":" horiz-adv-x="585" d="M440 750h-295v294h295v-294zM440 0h-295v295h295v-295z" />
<glyph unicode=";" horiz-adv-x="585" d="M440 750h-295v294h295v-294zM145 0v295h295v-295l-153 -270h-135l147 270h-154z" />
<glyph unicode="&#x3c;" d="M1126 834l-780 -312l780 -311v-211l-1065 428v188l1065 428v-210z" />
<glyph unicode="=" d="M82 227v197h1065v-197h-1065zM82 621v196h1065v-196h-1065z" />
<glyph unicode="&#x3e;" d="M102 1044l1065 -428v-188l-1065 -428v211l781 311l-781 312v210z" />
<glyph unicode="?" horiz-adv-x="1052" d="M639 0h-295v295h295v-295zM725 1036q0 82 -46 130t-149 48q-104 0 -153 -51t-55 -137h-256q14 186 142 291.5t335 105.5q100 0 181 -28.5t138.5 -79.5t88 -124t30.5 -161q0 -121 -47 -197.5t-125 -146.5q-41 -37 -76 -65.5t-60.5 -58.5t-40 -61.5t-14.5 -74.5v-20h-256 v20q0 55 10.5 100t34 85t59.5 77t85 78q86 70 130 131t44 139z" />
<glyph unicode="@" horiz-adv-x="1927" d="M717 242v561h561v-363h256v604h-1073v-1044h817v-199h-1073v1442h1585v-1001h-1073z" />
<glyph unicode="A" horiz-adv-x="1314" d="M655 1071l-168 -549h338l-161 549h-9zM893 297h-475l-90 -297h-287l475 1393h283l473 -1393h-287z" />
<glyph unicode="B" horiz-adv-x="1339" d="M946 487q0 119 -123 119h-385v-381h377q66 0 98.5 30t32.5 95v137zM981 725q111 -31 176.5 -112t65.5 -207q0 -111 -32 -189t-90.5 -126t-141 -69.5t-183.5 -21.5h-604v1393h594q94 0 173 -19.5t135 -61.5t87 -109.5t31 -162.5q0 -119 -56.5 -198.5t-154.5 -116.5z M438 1167v-336h363q66 0 90 31t24 92v107q0 106 -114 106h-363z" />
<glyph unicode="C" horiz-adv-x="1335" d="M696 -31q-152 0 -261 54.5t-181 150.5t-106.5 228.5t-34.5 289.5q0 166 36.5 301t110.5 230.5t186.5 147.5t264.5 52q106 0 198 -30.5t160 -89t109 -141.5t47 -185h-267q-10 111 -78.5 166t-187.5 55q-63 0 -117.5 -20.5t-93.5 -57.5t-60.5 -90t-21.5 -119v-426 q0 -63 23.5 -116.5t64.5 -92t95.5 -60t117.5 -21.5q125 0 193 54t88 177h266q-16 -121 -63 -207t-119 -141t-166 -82t-203 -27z" />
<glyph unicode="D" horiz-adv-x="1378" d="M438 1167v-942h205q166 0 254 65.5t88 205.5v401q0 139 -88 204.5t-254 65.5h-205zM643 1393q330 0 474.5 -173t144.5 -524q0 -350 -144.5 -523t-474.5 -173h-471v1393h471z" />
<glyph unicode="E" horiz-adv-x="1245" d="M172 1393h958v-226h-692v-342h598v-225h-598v-375h692v-225h-958v1393z" />
<glyph unicode="F" horiz-adv-x="1146" d="M172 1393h889v-226h-623v-342h574v-225h-574v-600h-266v1393z" />
<glyph unicode="G" horiz-adv-x="1400" d="M680 -31q-141 0 -247.5 54.5t-177.5 150.5t-106.5 228.5t-35.5 289.5q0 166 36.5 301t111.5 230.5t189.5 147.5t270.5 52q111 0 204 -30.5t161.5 -89t110.5 -141.5t48 -185h-266q-23 221 -277 221q-135 0 -219 -78t-84 -209v-426q0 -63 23.5 -116.5t64.5 -92t96.5 -60 t121.5 -21.5q135 0 215.5 67.5t80.5 212.5v60h-286v225h553v-760h-248l-6 127q-107 -158 -334 -158z" />
<glyph unicode="H" horiz-adv-x="1431" d="M993 596h-555v-596h-266v1393h266v-572h555v572h267v-1393h-267v596z" />
<glyph unicode="I" horiz-adv-x="610" d="M172 1393h266v-1393h-266v1393z" />
<glyph unicode="J" horiz-adv-x="903" d="M731 0h-694v225h428v1168h266v-1393z" />
<glyph unicode="K" horiz-adv-x="1318" d="M438 0h-266v1393h266v-1393zM442 743l502 650h313l-522 -650l551 -743h-307z" />
<glyph unicode="L" horiz-adv-x="1062" d="M172 1393h266v-1168h590v-225h-856v1393z" />
<glyph unicode="M" horiz-adv-x="1759" d="M885 299l266 1094h436v-1393h-256v1104h-8l-285 -1104h-317l-285 1104h-8v-1104h-256v1393h434l271 -1094h8z" />
<glyph unicode="N" horiz-adv-x="1431" d="M995 332v1061h265v-1393h-400l-416 1063h-8v-1063h-264v1393h399l416 -1061h8z" />
<glyph unicode="O" horiz-adv-x="1466" d="M733 195q70 0 130.5 18t105.5 55t71.5 90.5t26.5 122.5v430q0 70 -26.5 123t-71.5 90t-105.5 55.5t-130.5 18.5t-130 -18.5t-105 -55.5t-72 -90t-27 -123v-430q0 -70 27 -123t72 -90t105 -55t130 -18zM1354 696q0 -358 -162 -542.5t-459 -184.5t-458.5 184.5 t-161.5 542.5t161.5 542.5t458.5 184.5t459 -184.5t162 -542.5z" />
<glyph unicode="P" horiz-adv-x="1251" d="M768 725q70 0 100.5 35t30.5 104v172q0 70 -28.5 100.5t-102.5 30.5h-330v-442h330zM438 500v-500h-266v1393h567q223 0 330 -107.5t107 -339.5q0 -221 -119 -333.5t-316 -112.5h-303z" />
<glyph unicode="Q" horiz-adv-x="1472" d="M1425 0l-170 -170l-213 207q-66 -33 -142.5 -50.5t-166.5 -17.5q-297 0 -458.5 184.5t-161.5 542.5t161.5 542.5t458.5 184.5t459 -184t162 -543q0 -315 -131 -499zM733 195q70 0 130.5 18t105.5 55t71.5 90.5t26.5 122.5v430q0 70 -26.5 123t-71.5 90t-105.5 55.5 t-130.5 18.5t-130 -18.5t-105 -55.5t-72 -90t-27 -123v-430q0 -70 27 -123t72 -90t105 -55t130 -18z" />
<glyph unicode="R" horiz-adv-x="1298" d="M774 754q125 0 125 139v143q0 70 -27.5 100.5t-97.5 30.5h-336v-413h336zM438 535v-535h-266v1393h567q223 0 330 -105.5t107 -324.5q0 -166 -79 -266.5t-220 -139.5l319 -557h-295l-293 535h-170z" />
<glyph unicode="S" horiz-adv-x="1286" d="M633 1204q-111 0 -174.5 -44t-63.5 -120q0 -80 49.5 -121.5t149.5 -68.5l237 -62q178 -47 269.5 -142t91.5 -267q0 -96 -39 -172t-110.5 -129t-171 -81t-218.5 -28q-117 0 -216 24.5t-174 78t-121 138.5t-54 206h266q16 -123 94 -175.5t201 -52.5q117 0 197 48.5 t80 140.5q0 74 -46 118t-141 68l-272 72q-172 45 -255 147.5t-83 255.5q0 84 36 155t101.5 122t159.5 79.5t211 28.5q106 0 197.5 -24.5t159 -75.5t110.5 -131t53 -188h-266q-6 57 -29.5 96t-58.5 62.5t-79 32.5t-91 9z" />
<glyph unicode="T" horiz-adv-x="1155" d="M39 1393h1077v-226h-405v-1167h-267v1167h-405v226z" />
<glyph unicode="U" horiz-adv-x="1404" d="M983 1393h264v-897q0 -121 -38 -218.5t-108.5 -166t-171 -105.5t-227.5 -37t-227 37t-171 104.5t-108.5 165t-37.5 220.5v897h266v-908q0 -135 69.5 -212.5t208.5 -77.5q141 0 211 76.5t70 213.5v908z" />
<glyph unicode="V" horiz-adv-x="1298" d="M655 305l291 1088h293l-442 -1393h-295l-441 1393h289l297 -1088h8z" />
<glyph unicode="W" horiz-adv-x="1959" d="M590 287l209 1106h362l209 -1106h8l219 1106h291l-336 -1393h-362l-207 1092h-8l-209 -1092h-358l-338 1393h297l215 -1106h8z" />
<glyph unicode="X" horiz-adv-x="1267" d="M475 711l-412 682h314l260 -459l260 459h307l-407 -682l428 -711h-310l-280 485l-279 -485h-313z" />
<glyph unicode="Y" horiz-adv-x="1249" d="M27 1393h301l299 -578l299 578h297l-465 -848v-545h-266v545z" />
<glyph unicode="Z" horiz-adv-x="1253" d="M1141 1171l-717 -946h713v-225h-1039v221l713 946h-680v226h1010v-222z" />
<glyph unicode="[" horiz-adv-x="768" d="M676 1466v-192h-256v-1430h256v-192h-502v1814h502z" />
<glyph unicode="\" horiz-adv-x="1001" d="M49 1393h266l639 -1393h-266z" />
<glyph unicode="]" horiz-adv-x="768" d="M594 1466v-1814h-502v192h256v1430h-256v192h502z" />
<glyph unicode="^" d="M516 1393h197l424 -795h-213l-312 582l-305 -582h-215z" />
<glyph unicode="_" horiz-adv-x="1253" d="M145 -113h963v-163h-963v163z" />
<glyph unicode="`" horiz-adv-x="643" d="M436 1174h-211l-227 249h287z" />
<glyph unicode="a" horiz-adv-x="1173" d="M725 715q0 82 -44 118.5t-120 36.5q-78 0 -127 -37.5t-49 -109.5h-256q2 86 37 150.5t93 107.5t138 65.5t174 22.5q188 0 297 -91t109 -267v-512h176v-199h-403l-2 162h-9q-45 -86 -119.5 -136.5t-195.5 -50.5q-72 0 -131.5 24t-104.5 67t-69.5 101t-24.5 130 q0 127 88 219t254 107l289 24v68zM514 174q98 0 154.5 69.5t56.5 168.5v41l-307 -27q-57 -6 -58 -68v-90q0 -47 43 -70.5t111 -23.5z" />
<glyph unicode="b" horiz-adv-x="1236" d="M158 0v1393h256v-490q49 78 124.5 122t180.5 44q104 0 182 -43t129 -116.5t75.5 -174t24.5 -213.5q0 -115 -24.5 -214t-75.5 -173t-129 -117t-182 -43t-180 44t-125 122v-141h-256zM414 444q0 -123 56 -196.5t179 -73.5q100 0 157.5 54.5t57.5 146.5v295q0 92 -57 146 t-158 54q-123 0 -179 -73.5t-56 -196.5v-156z" />
<glyph unicode="c" horiz-adv-x="1112" d="M104 516q0 129 33 231.5t94.5 174t147.5 109.5t194 38q82 0 157 -21.5t135.5 -67.5t98 -117.5t46.5 -170.5h-256q-10 100 -61.5 139t-129.5 39t-135 -50t-57 -154v-287q0 -96 54 -150.5t140 -54.5t135.5 41t61.5 145h256q-10 -98 -47 -169.5t-96.5 -119.5t-135 -72 t-161.5 -24q-117 0 -205 40t-148.5 111t-90.5 170t-30 220z" />
<glyph unicode="d" horiz-adv-x="1236" d="M823 0v141q-49 -78 -122.5 -122t-178.5 -44q-104 0 -182 43t-130 117t-78 173.5t-26 213.5q0 113 25 213.5t76 174t129 116.5t182 43t180 -44t125 -122v490h256v-1393h-256zM823 600q0 123 -56 196.5t-179 73.5q-100 0 -157.5 -56t-57.5 -144v-295q0 -88 58 -144.5 t157 -56.5q123 0 179 74t56 196v156z" />
<glyph unicode="e" horiz-adv-x="1140" d="M104 524q0 123 34 223.5t95.5 172t148.5 110.5t193 39t192.5 -38t148 -104.5t94 -158.5t32.5 -199v-129h-671v-69q0 -94 61.5 -145.5t145.5 -51.5t137 44t63 124h256q-25 -174 -146.5 -270.5t-312.5 -96.5q-111 0 -198.5 40t-148 112t-92.5 173t-32 224zM371 639h409v37 q0 86 -58 140t-147 54q-88 0 -146 -54t-58 -140v-37z" />
<glyph unicode="f" horiz-adv-x="817" d="M520 1044h240v-198h-240v-846h-256v846h-205v198h205v349h516v-199h-260v-150z" />
<glyph unicode="g" horiz-adv-x="1236" d="M823 141q-49 -78 -122.5 -122t-178.5 -44q-104 0 -182 43t-130 117t-78 173.5t-26 213.5q0 113 25 213.5t76 174t129 116.5t182 43t180 -44t125 -122v141h256v-1028q0 -106 -39 -184t-104.5 -129t-150.5 -76.5t-177 -25.5t-172 17t-141.5 56t-100 101.5t-51.5 152.5h256 q12 -61 55.5 -95t133.5 -34q45 0 88 9.5t75.5 35t52 70.5t19.5 115v112zM823 600q0 123 -56 196.5t-179 73.5q-100 0 -157.5 -56t-57.5 -144v-295q0 -88 58 -144.5t157 -56.5q123 0 179 74t56 196v156z" />
<glyph unicode="h" horiz-adv-x="1214" d="M414 893q47 84 122.5 130t186.5 46q176 0 259 -102.5t83 -282.5v-684h-256v666q0 92 -39 143t-131 51q-106 0 -165.5 -70.5t-59.5 -185.5v-604h-256v1393h256v-500z" />
<glyph unicode="i" horiz-adv-x="571" d="M418 1165h-264v228h264v-228zM158 0v1044h256v-1044h-256z" />
<glyph unicode="j" horiz-adv-x="595" d="M182 1044h256v-1392h-538v198h282v1194zM442 1165h-264v228h264v-228z" />
<glyph unicode="k" horiz-adv-x="1140" d="M414 0h-256v1393h256v-1393zM418 573l350 471h303l-373 -471l406 -573h-285z" />
<glyph unicode="l" horiz-adv-x="571" d="M158 0v1393h256v-1393h-256z" />
<glyph unicode="m" horiz-adv-x="1783" d="M995 874q102 195 318 195q160 0 240.5 -102.5t80.5 -282.5v-684h-256v666q0 195 -149 194q-92 0 -148.5 -70.5t-56.5 -185.5v-604h-256v666q0 195 -150 194q-92 0 -148 -70.5t-56 -185.5v-604h-256v1044h256v-151q45 84 114.5 130t173.5 46q113 0 185.5 -50.5 t107.5 -144.5z" />
<glyph unicode="n" horiz-adv-x="1214" d="M414 893q47 84 122.5 130t186.5 46q176 0 259 -102.5t83 -282.5v-684h-256v666q0 92 -39 143t-131 51q-106 0 -165.5 -70.5t-59.5 -185.5v-604h-256v1044h256v-151z" />
<glyph unicode="o" horiz-adv-x="1187" d="M817 674q0 96 -63.5 146t-159.5 50t-159.5 -51t-63.5 -145v-303q0 -94 63.5 -145.5t159.5 -51.5t159.5 50t63.5 147v303zM1083 522q0 -123 -32.5 -223t-95 -173t-153.5 -112t-208 -39t-208 39t-153.5 112t-95.5 173t-33 223t33 223.5t95.5 173t153.5 111.5t208 39 t208 -39t153.5 -111.5t95 -173t32.5 -223.5z" />
<glyph unicode="p" horiz-adv-x="1236" d="M158 -348v1392h256v-141q49 78 124.5 122t180.5 44q104 0 182 -43t129 -116.5t75.5 -174t24.5 -213.5q0 -115 -24.5 -214t-75.5 -173t-129 -117t-182 -43t-180 44t-125 122v-489h-256zM414 444q0 -123 56 -196.5t179 -73.5q100 0 157.5 54.5t57.5 146.5v295q0 92 -57 146 t-158 54q-123 0 -179 -73.5t-56 -196.5v-156z" />
<glyph unicode="q" horiz-adv-x="1236" d="M823 -348v489q-49 -78 -122.5 -122t-178.5 -44q-104 0 -182 43t-130 117t-78 173.5t-26 213.5q0 113 25 213.5t76 174t129 116.5t182 43t180 -44t125 -122v141h256v-1392h-256zM823 600q0 123 -56 196.5t-179 73.5q-100 0 -157.5 -56t-57.5 -144v-295q0 -88 58 -144.5 t157 -56.5q123 0 179 74t56 196v156z" />
<glyph unicode="r" horiz-adv-x="792" d="M158 1044h583v-200h-327v-844h-256v1044z" />
<glyph unicode="s" horiz-adv-x="1056" d="M692 606q57 -12 108.5 -35.5t88.5 -60.5t58.5 -88t21.5 -121q0 -68 -29 -127t-84 -103t-136 -70t-185 -26q-209 0 -323 92.5t-122 264.5h256q16 -158 189 -158q74 0 126 27.5t52 87.5q0 57 -43 82.5t-113 40.5l-180 39q-262 57 -262 299q0 68 27.5 126t79.5 101t127 67.5 t171 24.5q178 0 292 -86t122 -260h-256q-4 74 -47 110.5t-111 36.5q-66 0 -107.5 -28.5t-41.5 -79.5t31.5 -75.5t82.5 -35.5z" />
<glyph unicode="t" horiz-adv-x="868" d="M522 199h260v-199h-516v846h-207v198h207v349h256v-349h260v-198h-260v-647z" />
<glyph unicode="u" horiz-adv-x="1204" d="M791 152q-47 -86 -122 -131.5t-186 -45.5q-168 0 -252 101.5t-84 283.5v684h256v-665q0 -92 36 -143.5t128 -51.5q104 0 164 71t60 185v604h256v-1044h-256v152z" />
<glyph unicode="v" horiz-adv-x="1103" d="M555 287l233 757h271l-367 -1044h-280l-367 1044h274l228 -757h8z" />
<glyph unicode="w" horiz-adv-x="1634" d="M1141 287l155 757h283l-291 -1044h-309l-158 758h-8l-158 -758h-309l-291 1044h287l152 -757h8l153 757h320l158 -757h8z" />
<glyph unicode="x" horiz-adv-x="1089" d="M401 549l-331 495h282l193 -307l192 307h277l-328 -495l365 -549h-279l-227 356l-223 -356h-281z" />
<glyph unicode="y" horiz-adv-x="1107" d="M561 299l234 745h270l-504 -1392h-446v198h262l51 150l-377 1044h275l227 -745h8z" />
<glyph unicode="z" horiz-adv-x="1062" d="M958 199v-199h-862v199l535 647h-498v198h811v-198l-541 -647h555z" />
<glyph unicode="{" horiz-adv-x="851" d="M258 655v811h502v-192h-256v-619h-246zM63 463v192h195v-192h246v-619h256v-192h-502v811h-195z" />
<glyph unicode="|" horiz-adv-x="589" d="M172 1741h246v-2089h-246v2089z" />
<glyph unicode="}" horiz-adv-x="851" d="M594 463v-811h-502v192h256v619h246zM788 655v-192h-194v192h-246v619h-256v192h502v-811h194z" />
<glyph unicode="~" d="M1157 635q0 -66 -21.5 -120t-60.5 -94t-92 -61.5t-117 -21.5q-37 0 -68.5 6t-65.5 18.5t-74 32t-91 45.5q-78 39 -119.5 61.5t-87.5 22.5q-49 0 -72.5 -30.5t-23.5 -85.5h-194q0 66 21.5 120t60 94t92 61.5t116.5 21.5q37 0 70 -6.5t66.5 -19.5t72.5 -31.5t86 -43.5 q43 -23 72 -39t52.5 -26.5t43 -15.5t43.5 -5q49 0 73 32t24 85h194z" />
<glyph unicode="&#xa1;" horiz-adv-x="591" d="M444 750h-297v294h297v-294zM383 639l41 -305v-682h-256v682l41 305h174z" />
<glyph unicode="&#xa2;" d="M430 379q0 -72 29.5 -120t83.5 -71v668q-49 -20 -81 -67.5t-32 -122.5v-287zM543 -16q-94 14 -165 59t-119 113.5t-71.5 160t-23.5 199.5q0 229 100.5 372.5t278.5 172.5v172h172v-170q68 -10 129 -37t109 -72t79 -110.5t37 -151.5h-256q-8 66 -32.5 105t-65.5 57v-668 q45 16 70.5 58.5t35.5 115.5h256q-8 -86 -38.5 -152.5t-79 -113.5t-111 -75.5t-133.5 -36.5v-170h-172v172z" />
<glyph unicode="&#xa3;" d="M92 209h184v407h-184v203h184v211q0 82 27 153.5t80 125t135 84t191 30.5q111 0 191.5 -30.5t133.5 -85t80 -127t27 -156.5h-256q0 100 -42 143t-134 43t-134.5 -44t-42.5 -142v-205h304v-203h-304v-407h582v-209h-1022v209z" />
<glyph unicode="&#xa4;" d="M346 598q0 -55 20.5 -103.5t57.5 -85t85 -57t103 -20.5t103.5 20.5t85.5 57t57.5 85t20.5 103.5t-20.5 103.5t-57.5 85t-85 57t-104 20.5q-55 0 -103 -20.5t-85 -57t-57.5 -85t-20.5 -103.5zM213 348q-35 53 -53.5 116.5t-18.5 133.5t18.5 133.5t53.5 116.5l-115 117 l150 149l114 -117q55 35 118 53.5t132 18.5q70 0 132.5 -18.5t117.5 -53.5l117 117l149 -147l-118 -117q74 -115 73 -252q0 -70 -18 -132.5t-53 -117.5l116 -115l-149 -149l-115 115q-55 -35 -118.5 -53.5t-133.5 -18.5t-134 18.5t-118 53.5l-114 -115l-148 149z" />
<glyph unicode="&#xa5;" d="M137 434h348v121h-348v162h246l-336 676h270l295 -607l299 607h269l-340 -676h245v-162h-346v-121h346v-162h-346v-272h-254v272h-348v162z" />
<glyph unicode="&#xa6;" horiz-adv-x="552" d="M154 1741h245v-854h-245v854zM154 506h245v-854h-245v854z" />
<glyph unicode="&#xa7;" horiz-adv-x="1267" d="M463 324h399v399h-399v-399zM207 123v1270h909v-201h-653v-268h655v-1272h-913v201h657v270h-655z" />
<glyph unicode="&#xa8;" horiz-adv-x="770" d="M684 1202h-242v221h242v-221zM262 1202h-242v221h242v-221z" />
<glyph unicode="&#xa9;" horiz-adv-x="1671" d="M283 696q0 -115 43 -216t117.5 -176t176 -118t216.5 -43t216 43t176 118t118 176.5t43 215.5q0 115 -43 216.5t-118 176t-176.5 117.5t-215.5 43q-115 0 -216.5 -43t-176 -117.5t-117.5 -176t-43 -216.5zM518 692q0 176 86 276.5t234 100.5q55 0 106 -15.5t92 -47 t67.5 -82t31.5 -117.5h-177q-6 72 -39.5 98.5t-87.5 26.5q-53 0 -91 -33t-38 -104v-197q0 -66 35 -101.5t94 -35.5t91 25.5t43 99.5h176q-16 -135 -99.5 -198.5t-201.5 -63.5q-80 0 -139.5 26.5t-100.5 75.5t-61.5 116.5t-20.5 149.5zM109 696q0 150 57 283t155.5 231.5 t230.5 155.5t284 57q150 0 282.5 -57t231 -155.5t156 -231.5t57.5 -283q0 -152 -57.5 -283.5t-156 -230t-231.5 -156t-282 -57.5q-152 0 -284 57.5t-230.5 156t-155.5 230t-57 283.5z" />
<glyph unicode="&#xaa;" horiz-adv-x="839" d="M449 1044q0 27 -16.5 39.5t-45.5 12.5t-48.5 -13.5t-19.5 -42.5h-176q4 92 75 138.5t175 46.5q109 0 170.5 -47.5t61.5 -139.5v-223h92v-143h-260l-2 80h-4q-51 -92 -154 -93q-78 0 -125 46.5t-47 117.5q0 72 44 117t132 53l148 15v36zM360 795q41 0 65 24.5t24 63.5v12 l-111 -10q-29 -2 -29 -35v-23q0 -32 51 -32z" />
<glyph unicode="&#xab;" horiz-adv-x="1157" d="M326 145l-220 381l220 381h235l-199 -381l199 -381h-235zM801 145l-219 381l219 381h235l-198 -381l198 -381h-235z" />
<glyph unicode="&#xac;" d="M920 621h-838v196h1044v-569h-206v373z" />
<glyph unicode="&#xad;" horiz-adv-x="864" d="M145 659h574v-208h-574v208z" />
<glyph unicode="&#xae;" horiz-adv-x="1671" d="M1130 348h-184l-133 236h-72v-236h-174v696h330q106 0 166.5 -58t60.5 -173q0 -96 -38.5 -146.5t-98.5 -72.5zM895 719q31 0 43 17.5t12 41.5v74q0 55 -55 55h-154v-188h154zM283 696q0 -115 43 -216t117.5 -176t176 -118t216.5 -43t216 43t176 118t118 176.5t43 215.5 q0 115 -43 216.5t-118 176t-176.5 117.5t-215.5 43q-115 0 -216.5 -43t-176 -117.5t-117.5 -176t-43 -216.5zM109 696q0 150 57 283t155.5 231.5t230.5 155.5t284 57q150 0 282.5 -57t231 -155.5t156 -231.5t57.5 -283q0 -152 -57.5 -283.5t-156 -230t-231.5 -156 t-282 -57.5q-152 0 -284 57.5t-230.5 156t-155.5 230t-57 283.5z" />
<glyph unicode="&#xaf;" horiz-adv-x="643" d="M-6 1393h653v-162h-653v162z" />
<glyph unicode="&#xb0;" horiz-adv-x="786" d="M250 1137q0 -59 42 -101.5t101 -42.5t101.5 42t42.5 102q0 59 -42 101t-102 42q-59 0 -101 -42t-42 -101zM106 1137q0 59 23 111t61.5 91t91 61.5t111.5 22.5t111.5 -22.5t91.5 -61.5t61.5 -91t22.5 -111t-22.5 -111.5t-61.5 -91.5t-91 -61.5t-112 -22.5 q-59 0 -111.5 22.5t-91 61.5t-61.5 91.5t-23 111.5z" />
<glyph unicode="&#xb1;" d="M1147 0h-1065v197h1065v-197zM82 547v196h420v301h205v-301h440v-196h-440v-281h-205v281h-420z" />
<glyph unicode="&#xb2;" horiz-adv-x="835" d="M387 819h309v-143h-553v139l279 252q33 29 59.5 59.5t26.5 65.5t-23.5 55.5t-64.5 20.5q-104 0 -105 -107h-176q0 123 82 185.5t205 62.5t190.5 -59.5t67.5 -151.5q0 -43 -11 -75.5t-28.5 -59.5t-39 -48.5t-42.5 -39.5l-176 -150v-6z" />
<glyph unicode="&#xb3;" horiz-adv-x="811" d="M311 975v135h138q51 0 51 47v47q0 29 -25.5 46.5t-64.5 17.5q-43 0 -72 -19.5t-29 -62.5h-176q4 100 75 161.5t206 61.5q129 0 195.5 -61.5t66.5 -145.5q0 -61 -31 -101t-84 -59q131 -37 131 -161q0 -96 -74.5 -159t-203.5 -63t-212 60.5t-87 183.5h176q4 -59 34.5 -80.5 t84.5 -21.5q57 0 81.5 19.5t24.5 49.5v56q0 49 -57 49h-148z" />
<glyph unicode="&#xb4;" horiz-adv-x="643" d="M358 1423h287l-227 -249h-211z" />
<glyph unicode="&#xb5;" horiz-adv-x="1275" d="M184 1044h256v-675q0 -92 36 -143.5t128 -51.5q104 0 163.5 70.5t59.5 185.5v614h256v-1044h-256v152q-98 -176 -290 -177q-57 0 -97 25v-348h-256v1392z" />
<glyph unicode="&#xb6;" horiz-adv-x="1400" d="M1198 1393v-1577h-246v1364h-260v-1364h-246v839h-348v738h1100z" />
<glyph unicode="&#xb7;" horiz-adv-x="585" d="M440 377h-295v295h295v-295z" />
<glyph unicode="&#xb8;" horiz-adv-x="636" d="M147 -195h168v134h174v-287h-342v153z" />
<glyph unicode="&#xb9;" horiz-adv-x="657" d="M504 676h-176v450h-228v144h228v123h176v-717z" />
<glyph unicode="&#xba;" horiz-adv-x="780" d="M479 1012q0 39 -25.5 58.5t-64.5 19.5t-64.5 -19.5t-25.5 -58.5v-131q0 -39 25.5 -58.5t64.5 -19.5t64.5 19.5t25.5 58.5v131zM666 946q0 -129 -74 -205.5t-203 -76.5t-201.5 76.5t-72.5 205.5t72.5 206t201.5 77t203 -77t74 -206z" />
<glyph unicode="&#xbb;" horiz-adv-x="1157" d="M596 145l199 381l-199 381h235l220 -381l-220 -381h-235zM121 145l198 381l-198 381h235l219 -381l-219 -381h-235z" />
<glyph unicode="&#xbc;" horiz-adv-x="1576" d="M1032 287h172v235h-8zM1200 0v143h-332v144l312 430h192v-430h129v-144h-129v-143h-172zM1114 1393h205l-873 -1393h-204zM483 676h-176v450h-227v144h227v123h176v-717z" />
<glyph unicode="&#xbd;" horiz-adv-x="1597" d="M1114 1393h205l-873 -1393h-204zM1194 143h309v-143h-553v139l279 252q33 29 59.5 59.5t26.5 65.5t-23.5 55.5t-64.5 20.5q-104 0 -105 -107h-176q0 123 82 185.5t205 62.5t190.5 -59.5t67.5 -151.5q0 -43 -11.5 -75.5t-28.5 -59.5t-38.5 -48.5t-42.5 -39.5l-176 -149v-7 zM483 676h-176v450h-227v144h227v123h176v-717z" />
<glyph unicode="&#xbe;" horiz-adv-x="1650" d="M1106 287h172v235h-8zM1274 0v143h-332v144l311 430h193v-430h129v-144h-129v-143h-172zM1188 1393h205l-873 -1393h-205zM283 975v135h137q51 0 51 47v47q0 29 -25.5 46.5t-64.5 17.5q-43 0 -71.5 -19.5t-28.5 -62.5h-177q4 100 75 161.5t206 61.5q129 0 195.5 -61.5 t66.5 -145.5q0 -61 -30.5 -101t-84.5 -59q131 -37 132 -161q0 -96 -75 -159t-204 -63t-212 60.5t-87 183.5h176q4 -59 35 -80.5t84 -21.5q57 0 81.5 19.5t24.5 49.5v56q0 49 -57 49h-147z" />
<glyph unicode="&#xbf;" horiz-adv-x="1042" d="M410 1044h295v-294h-295v294zM324 8q0 -82 46 -130t148 -48q104 0 153.5 51t55.5 137h256q-14 -186 -142 -291.5t-335 -105.5q-100 0 -181 28.5t-138.5 80t-88 124t-30.5 160.5q0 121 47 198t125 146q41 37 75.5 66t60 58.5t40 61t14.5 74.5v21h256v-21q0 -55 -10 -100 t-34 -85t-59.5 -78t-84.5 -76q-86 -70 -130 -131.5t-44 -139.5z" />
<glyph unicode="&#xc0;" horiz-adv-x="1314" d="M854 1530h-211l-227 250h286zM655 1071l-168 -549h338l-161 549h-9zM893 297h-475l-90 -297h-287l475 1393h283l473 -1393h-287z" />
<glyph unicode="&#xc1;" horiz-adv-x="1314" d="M606 1780h287l-227 -250h-211zM655 1071l-168 -549h338l-161 549h-9zM893 297h-475l-90 -297h-287l475 1393h283l473 -1393h-287z" />
<glyph unicode="&#xc2;" horiz-adv-x="1314" d="M553 1530h-207l162 250h285l163 -250h-211l-96 119zM655 1071l-168 -549h338l-161 549h-9zM893 297h-475l-90 -297h-287l475 1393h283l473 -1393h-287z" />
<glyph unicode="&#xc3;" horiz-adv-x="1314" d="M999 1755q0 -100 -50 -165.5t-152 -65.5q-39 0 -77 14t-72 30.5t-64.5 31t-53.5 14.5q-66 0 -65 -74h-143q0 100 50 166t152 66q39 0 77 -14.5t72 -31t64.5 -31t53.5 -14.5q66 0 65 74h143zM655 1071l-168 -549h338l-161 549h-9zM893 297h-475l-90 -297h-287l475 1393 h283l473 -1393h-287z" />
<glyph unicode="&#xc4;" horiz-adv-x="1314" d="M983 1559h-242v221h242v-221zM561 1559h-242v221h242v-221zM655 1071l-168 -549h338l-161 549h-9zM893 297h-475l-90 -297h-287l475 1393h283l473 -1393h-287z" />
<glyph unicode="&#xc5;" horiz-adv-x="1314" d="M741 1729q0 35 -23.5 58t-58.5 23t-59.5 -23.5t-24.5 -57.5q0 -35 25 -59.5t59 -24.5q35 0 58.5 24.5t23.5 59.5zM453 1729q0 86 60 143t146 57t145.5 -57t59.5 -143t-59.5 -144.5t-145.5 -58.5q-43 0 -79.5 15t-65.5 43t-45 65t-16 80zM655 1071l-168 -549h338l-161 549 h-9zM893 297h-475l-90 -297h-287l475 1393h283l473 -1393h-287z" />
<glyph unicode="&#xc6;" horiz-adv-x="1961" d="M528 522h416v645h-102zM1847 1393v-226h-637v-342h543v-225h-543v-375h637v-225h-903v297h-526l-144 -297h-288l686 1393h1175z" />
<glyph unicode="&#xc7;" horiz-adv-x="1335" d="M696 -31q-152 0 -261 54.5t-181 150.5t-106.5 228.5t-34.5 289.5q0 166 36.5 301t110.5 230.5t186.5 147.5t264.5 52q106 0 198 -30.5t160 -89t109 -141.5t47 -185h-267q-10 111 -78.5 166t-187.5 55q-63 0 -117.5 -20.5t-93.5 -57.5t-60.5 -90t-21.5 -119v-426 q0 -63 23.5 -116.5t64.5 -92t95.5 -60t117.5 -21.5q125 0 193 54t88 177h266q-16 -121 -63 -207t-119 -141t-166 -82t-203 -27zM430 -195h168v134h174v-287h-342v153z" />
<glyph unicode="&#xc8;" horiz-adv-x="1245" d="M784 1530h-211l-227 250h287zM172 1393h958v-226h-692v-342h598v-225h-598v-375h692v-225h-958v1393z" />
<glyph unicode="&#xc9;" horiz-adv-x="1245" d="M629 1780h286l-227 -250h-211zM172 1393h958v-226h-692v-342h598v-225h-598v-375h692v-225h-958v1393z" />
<glyph unicode="&#xca;" horiz-adv-x="1245" d="M545 1530h-207l162 250h284l164 -250h-211l-96 119zM172 1393h958v-226h-692v-342h598v-225h-598v-375h692v-225h-958v1393z" />
<glyph unicode="&#xcb;" horiz-adv-x="1245" d="M975 1559h-242v221h242v-221zM553 1559h-242v221h242v-221zM172 1393h958v-226h-692v-342h598v-225h-598v-375h692v-225h-958v1393z" />
<glyph unicode="&#xcc;" horiz-adv-x="610" d="M438 1530h-211l-227 250h287zM172 1393h266v-1393h-266v1393z" />
<glyph unicode="&#xcd;" horiz-adv-x="610" d="M272 1780h287l-227 -250h-211zM172 1393h266v-1393h-266v1393z" />
<glyph unicode="&#xce;" horiz-adv-x="610" d="M203 1530h-207l162 250h284l164 -250h-211l-96 119zM172 1393h266v-1393h-266v1393z" />
<glyph unicode="&#xcf;" horiz-adv-x="610" d="M631 1559h-242v221h242v-221zM209 1559h-242v221h242v-221zM172 1393h266v-1393h-266v1393z" />
<glyph unicode="&#xd0;" horiz-adv-x="1409" d="M469 225h205q166 0 249 65.5t83 205.5v401q0 139 -83 204.5t-249 65.5h-205v-372h299v-197h-299v-373zM55 598v197h148v598h471q330 0 474 -173t144 -524q0 -350 -144 -523t-474 -173h-471v598h-148z" />
<glyph unicode="&#xd1;" horiz-adv-x="1431" d="M1055 1755q0 -100 -50.5 -165.5t-152.5 -65.5q-39 0 -77 14t-71.5 30.5t-64.5 31t-53 14.5q-66 0 -66 -74h-143q0 100 50 166t153 66q39 0 76.5 -14.5t71.5 -31t64.5 -31t53.5 -14.5q66 0 65 74h144zM995 332v1061h265v-1393h-400l-416 1063h-8v-1063h-264v1393h399 l416 -1061h8z" />
<glyph unicode="&#xd2;" horiz-adv-x="1466" d="M856 1552h-211l-227 250h287zM733 195q70 0 130.5 18t105.5 55t71.5 90.5t26.5 122.5v430q0 70 -26.5 123t-71.5 90t-105.5 55.5t-130.5 18.5t-130 -18.5t-105 -55.5t-72 -90t-27 -123v-430q0 -70 27 -123t72 -90t105 -55t130 -18zM1354 696q0 -358 -162 -542.5 t-459 -184.5t-458.5 184.5t-161.5 542.5t161.5 542.5t458.5 184.5t459 -184.5t162 -542.5z" />
<glyph unicode="&#xd3;" horiz-adv-x="1466" d="M743 1802h287l-227 -250h-211zM733 195q70 0 130.5 18t105.5 55t71.5 90.5t26.5 122.5v430q0 70 -26.5 123t-71.5 90t-105.5 55.5t-130.5 18.5t-130 -18.5t-105 -55.5t-72 -90t-27 -123v-430q0 -70 27 -123t72 -90t105 -55t130 -18zM1354 696q0 -358 -162 -542.5 t-459 -184.5t-458.5 184.5t-161.5 542.5t161.5 542.5t458.5 184.5t459 -184.5t162 -542.5z" />
<glyph unicode="&#xd4;" horiz-adv-x="1466" d="M633 1552h-207l162 250h284l164 -250h-211l-96 119zM733 195q70 0 130.5 18t105.5 55t71.5 90.5t26.5 122.5v430q0 70 -26.5 123t-71.5 90t-105.5 55.5t-130.5 18.5t-130 -18.5t-105 -55.5t-72 -90t-27 -123v-430q0 -70 27 -123t72 -90t105 -55t130 -18zM1354 696 q0 -358 -162 -542.5t-459 -184.5t-458.5 184.5t-161.5 542.5t161.5 542.5t458.5 184.5t459 -184.5t162 -542.5z" />
<glyph unicode="&#xd5;" horiz-adv-x="1466" d="M1073 1755q0 -100 -50 -165.5t-153 -65.5q-39 0 -76.5 14t-71.5 30.5t-64.5 31t-53.5 14.5q-66 0 -65 -74h-144q0 100 50.5 166t152.5 66q39 0 77 -14.5t71.5 -31t64.5 -31t53 -14.5q66 0 66 74h143zM733 195q70 0 130.5 18t105.5 55t71.5 90.5t26.5 122.5v430 q0 70 -26.5 123t-71.5 90t-105.5 55.5t-130.5 18.5t-130 -18.5t-105 -55.5t-72 -90t-27 -123v-430q0 -70 27 -123t72 -90t105 -55t130 -18zM1354 696q0 -358 -162 -542.5t-459 -184.5t-458.5 184.5t-161.5 542.5t161.5 542.5t458.5 184.5t459 -184.5t162 -542.5z" />
<glyph unicode="&#xd6;" horiz-adv-x="1466" d="M1065 1581h-242v221h242v-221zM643 1581h-242v221h242v-221zM733 195q70 0 130.5 18t105.5 55t71.5 90.5t26.5 122.5v430q0 70 -26.5 123t-71.5 90t-105.5 55.5t-130.5 18.5t-130 -18.5t-105 -55.5t-72 -90t-27 -123v-430q0 -70 27 -123t72 -90t105 -55t130 -18z M1354 696q0 -358 -162 -542.5t-459 -184.5t-458.5 184.5t-161.5 542.5t161.5 542.5t458.5 184.5t459 -184.5t162 -542.5z" />
<glyph unicode="&#xd7;" d="M1139 139l-142 -141l-383 383l-381 -383l-141 141l383 381l-383 383l141 141l381 -382l383 382l140 -139l-383 -383z" />
<glyph unicode="&#xd8;" horiz-adv-x="1466" d="M733 195q70 0 130.5 18t105.5 55t71.5 90.5t26.5 122.5v430q0 88 -45 156l-426 -852q61 -20 137 -20zM399 481q0 -98 56 -170l430 860q-35 14 -73 20.5t-79 6.5q-70 0 -130 -18.5t-105 -55.5t-72 -90t-27 -123v-430zM1354 696q0 -358 -162 -542.5t-459 -184.5 q-135 0 -239 37l-78 -156l-154 74l82 164q-113 90 -172 241.5t-59 366.5q0 358 161.5 542.5t458.5 184.5q72 0 135.5 -11t118.5 -34l82 164l154 -74l-88 -176q106 -90 162.5 -238.5t56.5 -357.5z" />
<glyph unicode="&#xd9;" horiz-adv-x="1404" d="M864 1530h-211l-227 250h287zM983 1393h264v-897q0 -121 -38 -218.5t-108.5 -166t-171 -105.5t-227.5 -37t-227 37t-171 104.5t-108.5 165t-37.5 220.5v897h266v-908q0 -135 69.5 -212.5t208.5 -77.5q141 0 211 76.5t70 213.5v908z" />
<glyph unicode="&#xda;" horiz-adv-x="1404" d="M698 1780h287l-227 -250h-211zM983 1393h264v-897q0 -121 -38 -218.5t-108.5 -166t-171 -105.5t-227.5 -37t-227 37t-171 104.5t-108.5 165t-37.5 220.5v897h266v-908q0 -135 69.5 -212.5t208.5 -77.5q141 0 211 76.5t70 213.5v908z" />
<glyph unicode="&#xdb;" horiz-adv-x="1404" d="M625 1530h-207l162 250h284l164 -250h-211l-96 119zM983 1393h264v-897q0 -121 -38 -218.5t-108.5 -166t-171 -105.5t-227.5 -37t-227 37t-171 104.5t-108.5 165t-37.5 220.5v897h266v-908q0 -135 69.5 -212.5t208.5 -77.5q141 0 211 76.5t70 213.5v908z" />
<glyph unicode="&#xdc;" horiz-adv-x="1404" d="M1034 1559h-241v221h241v-221zM612 1559h-241v221h241v-221zM983 1393h264v-897q0 -121 -38 -218.5t-108.5 -166t-171 -105.5t-227.5 -37t-227 37t-171 104.5t-108.5 165t-37.5 220.5v897h266v-908q0 -135 69.5 -212.5t208.5 -77.5q141 0 211 76.5t70 213.5v908z" />
<glyph unicode="&#xdd;" horiz-adv-x="1249" d="M664 1739h286l-227 -250h-211zM27 1393h301l299 -578l299 578h297l-465 -848v-545h-266v545z" />
<glyph unicode="&#xde;" horiz-adv-x="1263" d="M768 485q70 0 100.5 35t30.5 105v172q0 70 -28.5 100.5t-102.5 30.5h-330v-443h330zM172 1393h266v-240h301q223 0 330 -107.5t107 -338.5q0 -221 -119 -334t-316 -113h-303v-260h-266v1393z" />
<glyph unicode="&#xdf;" horiz-adv-x="1181" d="M537 180h14q129 0 193.5 39t64.5 133v148q0 63 -27.5 97t-103.5 34h-141v207h120q76 0 103.5 32.5t27.5 96.5v114q0 66 -48 99.5t-130 33.5q-98 0 -147 -48t-49 -132v-1034h-256v1034q0 80 31.5 150.5t90 124t142.5 84t188 30.5t186.5 -29.5t139.5 -78.5t87 -113.5 t30 -134.5q0 -139 -50.5 -213t-152.5 -121q102 -31 162.5 -111.5t60.5 -232.5q0 -203 -134 -311.5t-382 -108.5h-20v211z" />
<glyph unicode="&#xe0;" horiz-adv-x="1173" d="M664 1174h-211l-228 249h287zM725 715q0 82 -44 118.5t-120 36.5q-78 0 -127 -37.5t-49 -109.5h-256q2 86 37 150.5t93 107.5t138 65.5t174 22.5q188 0 297 -91t109 -267v-512h176v-199h-403l-2 162h-9q-45 -86 -119.5 -136.5t-195.5 -50.5q-72 0 -131.5 24t-104.5 67 t-69.5 101t-24.5 130q0 127 88 219t254 107l289 24v68zM514 174q98 0 154.5 69.5t56.5 168.5v41l-307 -27q-57 -6 -58 -68v-90q0 -47 43 -70.5t111 -23.5z" />
<glyph unicode="&#xe1;" horiz-adv-x="1173" d="M600 1423h287l-228 -249h-210zM725 715q0 82 -44 118.5t-120 36.5q-78 0 -127 -37.5t-49 -109.5h-256q2 86 37 150.5t93 107.5t138 65.5t174 22.5q188 0 297 -91t109 -267v-512h176v-199h-403l-2 162h-9q-45 -86 -119.5 -136.5t-195.5 -50.5q-72 0 -131.5 24t-104.5 67 t-69.5 101t-24.5 130q0 127 88 219t254 107l289 24v68zM514 174q98 0 154.5 69.5t56.5 168.5v41l-307 -27q-57 -6 -58 -68v-90q0 -47 43 -70.5t111 -23.5z" />
<glyph unicode="&#xe2;" horiz-adv-x="1173" d="M465 1174h-207l162 249h285l163 -249h-211l-96 118zM725 715q0 82 -44 118.5t-120 36.5q-78 0 -127 -37.5t-49 -109.5h-256q2 86 37 150.5t93 107.5t138 65.5t174 22.5q188 0 297 -91t109 -267v-512h176v-199h-403l-2 162h-9q-45 -86 -119.5 -136.5t-195.5 -50.5 q-72 0 -131.5 24t-104.5 67t-69.5 101t-24.5 130q0 127 88 219t254 107l289 24v68zM514 174q98 0 154.5 69.5t56.5 168.5v41l-307 -27q-57 -6 -58 -68v-90q0 -47 43 -70.5t111 -23.5z" />
<glyph unicode="&#xe3;" horiz-adv-x="1173" d="M922 1407q0 -100 -50.5 -165.5t-152.5 -65.5q-39 0 -77 14t-71.5 30.5t-64.5 31t-53 14.5q-66 0 -66 -74h-143q0 100 50 165.5t152 65.5q39 0 77 -14t72 -30.5t64.5 -31t53.5 -14.5q66 0 65 74h144zM725 715q0 82 -44 118.5t-120 36.5q-78 0 -127 -37.5t-49 -109.5h-256 q2 86 37 150.5t93 107.5t138 65.5t174 22.5q188 0 297 -91t109 -267v-512h176v-199h-403l-2 162h-9q-45 -86 -119.5 -136.5t-195.5 -50.5q-72 0 -131.5 24t-104.5 67t-69.5 101t-24.5 130q0 127 88 219t254 107l289 24v68zM514 174q98 0 154.5 69.5t56.5 168.5v41l-307 -27 q-57 -6 -58 -68v-90q0 -47 43 -70.5t111 -23.5z" />
<glyph unicode="&#xe4;" horiz-adv-x="1173" d="M893 1202h-242v221h242v-221zM471 1202h-242v221h242v-221zM725 715q0 82 -44 118.5t-120 36.5q-78 0 -127 -37.5t-49 -109.5h-256q2 86 37 150.5t93 107.5t138 65.5t174 22.5q188 0 297 -91t109 -267v-512h176v-199h-403l-2 162h-9q-45 -86 -119.5 -136.5t-195.5 -50.5 q-72 0 -131.5 24t-104.5 67t-69.5 101t-24.5 130q0 127 88 219t254 107l289 24v68zM514 174q98 0 154.5 69.5t56.5 168.5v41l-307 -27q-57 -6 -58 -68v-90q0 -47 43 -70.5t111 -23.5z" />
<glyph unicode="&#xe5;" horiz-adv-x="1173" d="M643 1350q0 35 -23.5 58.5t-58.5 23.5t-59.5 -24t-24.5 -58q0 -35 24.5 -59.5t59.5 -24.5t58.5 24.5t23.5 59.5zM354 1350q0 86 60.5 143t146.5 57t145.5 -57t59.5 -143t-59.5 -144.5t-145.5 -58.5q-43 0 -80 15.5t-65.5 43t-45 64.5t-16.5 80zM725 715q0 82 -44 118.5 t-120 36.5q-78 0 -127 -37.5t-49 -109.5h-256q2 86 37 150.5t93 107.5t138 65.5t174 22.5q188 0 297 -91t109 -267v-512h176v-199h-403l-2 162h-9q-45 -86 -119.5 -136.5t-195.5 -50.5q-72 0 -131.5 24t-104.5 67t-69.5 101t-24.5 130q0 127 88 219t254 107l289 24v68z M514 174q98 0 154.5 69.5t56.5 168.5v41l-307 -27q-57 -6 -58 -68v-90q0 -47 43 -70.5t111 -23.5z" />
<glyph unicode="&#xe6;" horiz-adv-x="1732" d="M842 121q-68 -72 -154 -109t-213 -37q-84 0 -154.5 24t-120.5 69t-78 108.5t-28 140.5q0 70 23.5 129.5t66.5 102.5t101.5 66.5t130.5 23.5h309v76q0 82 -44 118.5t-120 36.5q-78 0 -127 -37.5t-49 -109.5h-256q2 86 37 150.5t93 107.5t138 65.5t174 22.5 q102 0 182.5 -30.5t131.5 -88.5q53 59 127.5 89t161.5 30q104 0 189 -38t144.5 -104.5t92 -158.5t32.5 -199v-129h-655v-69q0 -94 59.5 -145.5t139.5 -51.5t131 44t61 124h256q-25 -174 -144.5 -270.5t-305.5 -96.5q-111 0 -190 37t-138 109h-4zM977 639h393v37 q0 86 -55 140t-141 54t-141.5 -54t-55.5 -140v-37zM514 174q98 0 154.5 69.5t56.5 168.5v30h-303q-31 0 -46.5 -18t-15.5 -49v-107q0 -47 43 -70.5t111 -23.5z" />
<glyph unicode="&#xe7;" horiz-adv-x="1112" d="M317 -195h168v134h174v-287h-342v153zM104 516q0 129 33 231.5t94.5 174t147.5 109.5t194 38q82 0 157 -21.5t135.5 -67.5t98 -117.5t46.5 -170.5h-256q-10 100 -61.5 139t-129.5 39t-135 -50t-57 -154v-287q0 -96 54 -150.5t140 -54.5t135.5 41t61.5 145h256 q-10 -98 -47 -169.5t-96.5 -119.5t-135 -72t-161.5 -24q-117 0 -205 40t-148.5 111t-90.5 170t-30 220z" />
<glyph unicode="&#xe8;" horiz-adv-x="1140" d="M696 1174h-211l-227 249h287zM104 524q0 123 34 223.5t95.5 172t148.5 110.5t193 39t192.5 -38t148 -104.5t94 -158.5t32.5 -199v-129h-671v-69q0 -94 61.5 -145.5t145.5 -51.5t137 44t63 124h256q-25 -174 -146.5 -270.5t-312.5 -96.5q-111 0 -198.5 40t-148 112 t-92.5 173t-32 224zM371 639h409v37q0 86 -58 140t-147 54q-88 0 -146 -54t-58 -140v-37z" />
<glyph unicode="&#xe9;" horiz-adv-x="1140" d="M612 1423h287l-227 -249h-211zM104 524q0 123 34 223.5t95.5 172t148.5 110.5t193 39t192.5 -38t148 -104.5t94 -158.5t32.5 -199v-129h-671v-69q0 -94 61.5 -145.5t145.5 -51.5t137 44t63 124h256q-25 -174 -146.5 -270.5t-312.5 -96.5q-111 0 -198.5 40t-148 112 t-92.5 173t-32 224zM371 639h409v37q0 86 -58 140t-147 54q-88 0 -146 -54t-58 -140v-37z" />
<glyph unicode="&#xea;" horiz-adv-x="1140" d="M475 1174h-207l162 249h285l164 -249h-211l-97 118zM104 524q0 123 34 223.5t95.5 172t148.5 110.5t193 39t192.5 -38t148 -104.5t94 -158.5t32.5 -199v-129h-671v-69q0 -94 61.5 -145.5t145.5 -51.5t137 44t63 124h256q-25 -174 -146.5 -270.5t-312.5 -96.5 q-111 0 -198.5 40t-148 112t-92.5 173t-32 224zM371 639h409v37q0 86 -58 140t-147 54q-88 0 -146 -54t-58 -140v-37z" />
<glyph unicode="&#xeb;" horiz-adv-x="1140" d="M905 1202h-241v221h241v-221zM483 1202h-241v221h241v-221zM104 524q0 123 34 223.5t95.5 172t148.5 110.5t193 39t192.5 -38t148 -104.5t94 -158.5t32.5 -199v-129h-671v-69q0 -94 61.5 -145.5t145.5 -51.5t137 44t63 124h256q-25 -174 -146.5 -270.5t-312.5 -96.5 q-111 0 -198.5 40t-148 112t-92.5 173t-32 224zM371 639h409v37q0 86 -58 140t-147 54q-88 0 -146 -54t-58 -140v-37z" />
<glyph unicode="&#xec;" horiz-adv-x="571" d="M158 0v1044h256v-1044h-256zM473 1174h-211l-227 249h287z" />
<glyph unicode="&#xed;" horiz-adv-x="571" d="M158 0v1044h256v-1044h-256zM287 1423h286l-227 -249h-211z" />
<glyph unicode="&#xee;" horiz-adv-x="571" d="M158 0v1044h256v-1044h-256zM190 1174h-206l161 249h285l164 -249h-211l-96 118z" />
<glyph unicode="&#xef;" horiz-adv-x="571" d="M158 0v1044h256v-1044h-256zM618 1202h-241v221h241v-221zM197 1202h-242v221h242v-221z" />
<glyph unicode="&#xf0;" horiz-adv-x="1181" d="M553 1092h-268v163h164l-91 138h269l88 -138h276v-163h-166l95 -144q20 -31 47.5 -76t52 -102t42 -130t17.5 -159q0 -115 -34.5 -209t-98 -159.5t-155 -101.5t-201.5 -36q-111 0 -202 36t-154.5 101.5t-98.5 160t-35 208.5q0 115 35 208t96.5 159.5t147.5 102.5t190 36 h25.5t26.5 -2zM813 592q0 96 -65.5 146t-157.5 50q-96 0 -159.5 -50t-63.5 -146v-221q0 -96 63.5 -146.5t159.5 -50.5t159.5 50t63.5 147v221z" />
<glyph unicode="&#xf1;" horiz-adv-x="1214" d="M948 1407q0 -100 -50 -165.5t-153 -65.5q-39 0 -76.5 14t-71.5 30.5t-64.5 31t-53.5 14.5q-66 0 -65 -74h-144q0 100 50.5 165.5t152.5 65.5q39 0 77 -14t71.5 -30.5t64.5 -31t53 -14.5q66 0 66 74h143zM414 893q47 84 122.5 130t186.5 46q176 0 259 -102.5t83 -282.5 v-684h-256v666q0 92 -39 143t-131 51q-106 0 -165.5 -70.5t-59.5 -185.5v-604h-256v1044h256v-151z" />
<glyph unicode="&#xf2;" horiz-adv-x="1187" d="M713 1174h-211l-228 249h287zM817 674q0 96 -63.5 146t-159.5 50t-159.5 -51t-63.5 -145v-303q0 -94 63.5 -145.5t159.5 -51.5t159.5 50t63.5 147v303zM1083 522q0 -123 -32.5 -223t-95 -173t-153.5 -112t-208 -39t-208 39t-153.5 112t-95.5 173t-33 223t33 223.5 t95.5 173t153.5 111.5t208 39t208 -39t153.5 -111.5t95 -173t32.5 -223.5z" />
<glyph unicode="&#xf3;" horiz-adv-x="1187" d="M629 1423h286l-227 -249h-211zM817 674q0 96 -63.5 146t-159.5 50t-159.5 -51t-63.5 -145v-303q0 -94 63.5 -145.5t159.5 -51.5t159.5 50t63.5 147v303zM1083 522q0 -123 -32.5 -223t-95 -173t-153.5 -112t-208 -39t-208 39t-153.5 112t-95.5 173t-33 223t33 223.5 t95.5 173t153.5 111.5t208 39t208 -39t153.5 -111.5t95 -173t32.5 -223.5z" />
<glyph unicode="&#xf4;" horiz-adv-x="1187" d="M496 1174h-207l162 249h284l164 -249h-211l-96 118zM817 674q0 96 -63.5 146t-159.5 50t-159.5 -51t-63.5 -145v-303q0 -94 63.5 -145.5t159.5 -51.5t159.5 50t63.5 147v303zM1083 522q0 -123 -32.5 -223t-95 -173t-153.5 -112t-208 -39t-208 39t-153.5 112t-95.5 173 t-33 223t33 223.5t95.5 173t153.5 111.5t208 39t208 -39t153.5 -111.5t95 -173t32.5 -223.5z" />
<glyph unicode="&#xf5;" horiz-adv-x="1187" d="M934 1407q0 -100 -50 -165.5t-153 -65.5q-39 0 -77 14t-71.5 30.5t-64.5 31t-53 14.5q-66 0 -66 -74h-143q0 100 50 165.5t153 65.5q39 0 76.5 -14t71.5 -30.5t64.5 -31t53.5 -14.5q66 0 66 74h143zM817 674q0 96 -63.5 146t-159.5 50t-159.5 -51t-63.5 -145v-303 q0 -94 63.5 -145.5t159.5 -51.5t159.5 50t63.5 147v303zM1083 522q0 -123 -32.5 -223t-95 -173t-153.5 -112t-208 -39t-208 39t-153.5 112t-95.5 173t-33 223t33 223.5t95.5 173t153.5 111.5t208 39t208 -39t153.5 -111.5t95 -173t32.5 -223.5z" />
<glyph unicode="&#xf6;" horiz-adv-x="1187" d="M926 1202h-242v221h242v-221zM504 1202h-242v221h242v-221zM817 674q0 96 -63.5 146t-159.5 50t-159.5 -51t-63.5 -145v-303q0 -94 63.5 -145.5t159.5 -51.5t159.5 50t63.5 147v303zM1083 522q0 -123 -32.5 -223t-95 -173t-153.5 -112t-208 -39t-208 39t-153.5 112 t-95.5 173t-33 223t33 223.5t95.5 173t153.5 111.5t208 39t208 -39t153.5 -111.5t95 -173t32.5 -223.5z" />
<glyph unicode="&#xf7;" d="M743 0h-258v260h258v-260zM743 784h-258v260h258v-260zM1147 424h-1065v197h1065v-197z" />
<glyph unicode="&#xf8;" horiz-adv-x="1187" d="M891 979q94 -72 143 -187.5t49 -269.5q0 -123 -32.5 -223t-95 -173t-153.5 -112t-208 -39q-49 0 -93 7.5t-85 19.5l-78 -162l-158 70l86 178q-80 72 -121 182.5t-41 251.5q0 123 33 223.5t95.5 173t153.5 111.5t208 39q76 0 141 -18l72 147l158 -70zM645 866 q-12 2 -24.5 3t-26.5 1q-96 0 -159.5 -51t-63.5 -145v-303q0 -31 6 -56zM506 186q39 -12 88 -12q96 0 159.5 50t63.5 147v303q0 53 -26 100z" />
<glyph unicode="&#xf9;" horiz-adv-x="1204" d="M725 1174h-211l-227 249h286zM791 152q-47 -86 -122 -131.5t-186 -45.5q-168 0 -252 101.5t-84 283.5v684h256v-665q0 -92 36 -143.5t128 -51.5q104 0 164 71t60 185v604h256v-1044h-256v152z" />
<glyph unicode="&#xfa;" horiz-adv-x="1204" d="M600 1423h287l-228 -249h-210zM791 152q-47 -86 -122 -131.5t-186 -45.5q-168 0 -252 101.5t-84 283.5v684h256v-665q0 -92 36 -143.5t128 -51.5q104 0 164 71t60 185v604h256v-1044h-256v152z" />
<glyph unicode="&#xfb;" horiz-adv-x="1204" d="M496 1174h-207l162 249h284l164 -249h-211l-96 118zM791 152q-47 -86 -122 -131.5t-186 -45.5q-168 0 -252 101.5t-84 283.5v684h256v-665q0 -92 36 -143.5t128 -51.5q104 0 164 71t60 185v604h256v-1044h-256v152z" />
<glyph unicode="&#xfc;" horiz-adv-x="1204" d="M924 1202h-242v221h242v-221zM502 1202h-242v221h242v-221zM791 152q-47 -86 -122 -131.5t-186 -45.5q-168 0 -252 101.5t-84 283.5v684h256v-665q0 -92 36 -143.5t128 -51.5q104 0 164 71t60 185v604h256v-1044h-256v152z" />
<glyph unicode="&#xfd;" horiz-adv-x="1107" d="M571 1423h287l-227 -249h-211zM561 299l234 745h270l-504 -1392h-446v198h262l51 150l-377 1044h275l227 -745h8z" />
<glyph unicode="&#xfe;" horiz-adv-x="1236" d="M158 -348v1741h256v-490q49 78 124.5 122t180.5 44q104 0 182 -43t129 -116.5t75.5 -174t24.5 -213.5q0 -115 -24.5 -214t-75.5 -173t-129 -117t-182 -43t-180 44t-125 122v-489h-256zM414 444q0 -123 56 -196.5t179 -73.5q100 0 157.5 54.5t57.5 146.5v295q0 92 -57 146 t-158 54q-123 0 -179 -73.5t-56 -196.5v-156z" />
<glyph unicode="&#xff;" horiz-adv-x="1107" d="M887 1202h-242v221h242v-221zM465 1202h-242v221h242v-221zM561 299l234 745h270l-504 -1392h-446v198h262l51 150l-377 1044h275l227 -745h8z" />
<glyph unicode="&#x102;" horiz-adv-x="1314" d="M526 1772q0 -53 37 -87t96 -34t96.5 33.5t37.5 87.5h163q0 -61 -21.5 -112.5t-61 -87.5t-94 -56.5t-120.5 -20.5t-120 20.5t-93.5 56.5t-61.5 87t-22 113h164zM655 1071l-168 -549h338l-161 549h-9zM893 297h-475l-90 -297h-287l475 1393h283l473 -1393h-287z" />
<glyph unicode="&#x103;" horiz-adv-x="1173" d="M428 1423q0 -53 37 -86.5t96 -33.5t96 33.5t37 86.5h164q0 -61 -21.5 -112t-61.5 -87t-94 -56.5t-120 -20.5t-120 20.5t-94 56.5t-61.5 87t-21.5 112h164zM725 715q0 82 -44 118.5t-120 36.5q-78 0 -127 -37.5t-49 -109.5h-256q2 86 37 150.5t93 107.5t138 65.5t174 22.5 q188 0 297 -91t109 -267v-512h176v-199h-403l-2 162h-9q-45 -86 -119.5 -136.5t-195.5 -50.5q-72 0 -131.5 24t-104.5 67t-69.5 101t-24.5 130q0 127 88 219t254 107l289 24v68zM514 174q98 0 154.5 69.5t56.5 168.5v41l-307 -27q-57 -6 -58 -68v-90q0 -47 43 -70.5 t111 -23.5z" />
<glyph unicode="&#x104;" horiz-adv-x="1314" d="M1235 -348h-336v153l131 134h162l-121 -134h164v-153zM655 1071l-168 -549h338l-161 549h-9zM893 297h-475l-90 -297h-287l475 1393h283l473 -1393h-287z" />
<glyph unicode="&#x105;" horiz-adv-x="1173" d="M993 -348h-336v153l131 134h162l-121 -134h164v-153zM725 715q0 82 -44 118.5t-120 36.5q-78 0 -127 -37.5t-49 -109.5h-256q2 86 37 150.5t93 107.5t138 65.5t174 22.5q188 0 297 -91t109 -267v-512h176v-199h-403l-2 162h-9q-45 -86 -119.5 -136.5t-195.5 -50.5 q-72 0 -131.5 24t-104.5 67t-69.5 101t-24.5 130q0 127 88 219t254 107l289 24v68zM514 174q98 0 154.5 69.5t56.5 168.5v41l-307 -27q-57 -6 -58 -68v-90q0 -47 43 -70.5t111 -23.5z" />
<glyph unicode="&#x106;" horiz-adv-x="1335" d="M707 1772h286l-227 -250h-211zM696 -31q-152 0 -261 54.5t-181 150.5t-106.5 228.5t-34.5 289.5q0 166 36.5 301t110.5 230.5t186.5 147.5t264.5 52q106 0 198 -30.5t160 -89t109 -141.5t47 -185h-267q-10 111 -78.5 166t-187.5 55q-63 0 -117.5 -20.5t-93.5 -57.5 t-60.5 -90t-21.5 -119v-426q0 -63 23.5 -116.5t64.5 -92t95.5 -60t117.5 -21.5q125 0 193 54t88 177h266q-16 -121 -63 -207t-119 -141t-166 -82t-203 -27z" />
<glyph unicode="&#x107;" horiz-adv-x="1112" d="M578 1423h286l-227 -249h-211zM104 516q0 129 33 231.5t94.5 174t147.5 109.5t194 38q82 0 157 -21.5t135.5 -67.5t98 -117.5t46.5 -170.5h-256q-10 100 -61.5 139t-129.5 39t-135 -50t-57 -154v-287q0 -96 54 -150.5t140 -54.5t135.5 41t61.5 145h256 q-10 -98 -47 -169.5t-96.5 -119.5t-135 -72t-161.5 -24q-117 0 -205 40t-148.5 111t-90.5 170t-30 220z" />
<glyph unicode="&#x10c;" horiz-adv-x="1335" d="M686 1653l96 119h211l-164 -250h-284l-162 250h207zM696 -31q-152 0 -261 54.5t-181 150.5t-106.5 228.5t-34.5 289.5q0 166 36.5 301t110.5 230.5t186.5 147.5t264.5 52q106 0 198 -30.5t160 -89t109 -141.5t47 -185h-267q-10 111 -78.5 166t-187.5 55 q-63 0 -117.5 -20.5t-93.5 -57.5t-60.5 -90t-21.5 -119v-426q0 -63 23.5 -116.5t64.5 -92t95.5 -60t117.5 -21.5q125 0 193 54t88 177h266q-16 -121 -63 -207t-119 -141t-166 -82t-203 -27z" />
<glyph unicode="&#x10d;" horiz-adv-x="1112" d="M555 1305l96 118h211l-164 -249h-284l-162 249h207zM104 516q0 129 33 231.5t94.5 174t147.5 109.5t194 38q82 0 157 -21.5t135.5 -67.5t98 -117.5t46.5 -170.5h-256q-10 100 -61.5 139t-129.5 39t-135 -50t-57 -154v-287q0 -96 54 -150.5t140 -54.5t135.5 41t61.5 145 h256q-10 -98 -47 -169.5t-96.5 -119.5t-135 -72t-161.5 -24q-117 0 -205 40t-148.5 111t-90.5 170t-30 220z" />
<glyph unicode="&#x10e;" horiz-adv-x="1378" d="M649 1653l96 119h211l-163 -250h-285l-162 250h207zM438 1167v-942h205q166 0 254 65.5t88 205.5v401q0 139 -88 204.5t-254 65.5h-205zM643 1393q330 0 474.5 -173t144.5 -524q0 -350 -144.5 -523t-474.5 -173h-471v1393h471z" />
<glyph unicode="&#x10f;" horiz-adv-x="1472" d="M1202 1098v295h295v-295l-154 -271h-135l148 271h-154zM823 0v141q-49 -78 -122.5 -122t-178.5 -44q-104 0 -182 43t-130 117t-78 173.5t-26 213.5q0 113 25 213.5t76 174t129 116.5t182 43t180 -44t125 -122v490h256v-1393h-256zM823 600q0 123 -56 196.5t-179 73.5 q-100 0 -157.5 -56t-57.5 -144v-295q0 -88 58 -144.5t157 -56.5q123 0 179 74t56 196v156z" />
<glyph unicode="&#x110;" horiz-adv-x="1409" d="M469 225h205q166 0 249 65.5t83 205.5v401q0 139 -83 204.5t-249 65.5h-205v-372h299v-197h-299v-373zM55 598v197h148v598h471q330 0 474 -173t144 -524q0 -350 -144 -523t-474 -173h-471v598h-148z" />
<glyph unicode="&#x111;" horiz-adv-x="1236" d="M1079 0h-256v141q-49 -78 -122.5 -122t-178.5 -44q-104 0 -182 43t-130 117t-78 173.5t-26 213.5q0 113 25 213.5t76 174t129 116.5t182 43t180 -44t125 -122v230h-286v161h286v99h256v-99h211v-161h-211v-1133zM823 600q0 123 -56 196.5t-179 73.5q-100 0 -157.5 -56 t-57.5 -144v-295q0 -88 58 -144.5t157 -56.5q123 0 179 74t56 196v156z" />
<glyph unicode="&#x118;" horiz-adv-x="1245" d="M772 -348h-336v153l131 134h162l-121 -134h164v-153zM172 1393h958v-226h-692v-342h598v-225h-598v-375h692v-225h-958v1393z" />
<glyph unicode="&#x119;" horiz-adv-x="1140" d="M711 -348h-336v153l131 134h162l-121 -134h164v-153zM104 524q0 123 34 223.5t95.5 172t148.5 110.5t193 39t192.5 -38t148 -104.5t94 -158.5t32.5 -199v-129h-671v-69q0 -94 61.5 -145.5t145.5 -51.5t137 44t63 124h256q-25 -174 -146.5 -270.5t-312.5 -96.5 q-111 0 -198.5 40t-148 112t-92.5 173t-32 224zM371 639h409v37q0 86 -58 140t-147 54q-88 0 -146 -54t-58 -140v-37z" />
<glyph unicode="&#x11a;" horiz-adv-x="1245" d="M633 1653l96 119h211l-164 -250h-284l-162 250h207zM172 1393h958v-226h-692v-342h598v-225h-598v-375h692v-225h-958v1393z" />
<glyph unicode="&#x11b;" horiz-adv-x="1140" d="M573 1305l97 118h211l-164 -249h-285l-162 249h207zM104 524q0 123 34 223.5t95.5 172t148.5 110.5t193 39t192.5 -38t148 -104.5t94 -158.5t32.5 -199v-129h-671v-69q0 -94 61.5 -145.5t145.5 -51.5t137 44t63 124h256q-25 -174 -146.5 -270.5t-312.5 -96.5 q-111 0 -198.5 40t-148 112t-92.5 173t-32 224zM371 639h409v37q0 86 -58 140t-147 54q-88 0 -146 -54t-58 -140v-37z" />
<glyph unicode="&#x11e;" horiz-adv-x="1400" d="M563 1772q0 -53 37 -87t96 -34t96 33.5t37 87.5h164q0 -61 -21.5 -112.5t-61.5 -87.5t-94 -56.5t-120 -20.5t-120 20.5t-94 56.5t-61.5 87t-21.5 113h164zM680 -31q-141 0 -247.5 54.5t-177.5 150.5t-106.5 228.5t-35.5 289.5q0 166 36.5 301t111.5 230.5t189.5 147.5 t270.5 52q111 0 204 -30.5t161.5 -89t110.5 -141.5t48 -185h-266q-23 221 -277 221q-135 0 -219 -78t-84 -209v-426q0 -63 23.5 -116.5t64.5 -92t96.5 -60t121.5 -21.5q135 0 215.5 67.5t80.5 212.5v60h-286v225h553v-760h-248l-6 127q-107 -158 -334 -158z" />
<glyph unicode="&#x11f;" horiz-adv-x="1236" d="M483 1423q0 -53 37 -86.5t96 -33.5t96.5 33.5t37.5 86.5h163q0 -61 -21.5 -112t-61 -87t-94 -56.5t-120.5 -20.5t-120 20.5t-94 56.5t-61.5 87t-21.5 112h164zM823 141q-49 -78 -122.5 -122t-178.5 -44q-104 0 -182 43t-130 117t-78 173.5t-26 213.5q0 113 25 213.5 t76 174t129 116.5t182 43t180 -44t125 -122v141h256v-1028q0 -106 -39 -184t-104.5 -129t-150.5 -76.5t-177 -25.5t-172 17t-141.5 56t-100 101.5t-51.5 152.5h256q12 -61 55.5 -95t133.5 -34q45 0 88 9.5t75.5 35t52 70.5t19.5 115v112zM823 600q0 123 -56 196.5t-179 73.5 q-100 0 -157.5 -56t-57.5 -144v-295q0 -88 58 -144.5t157 -56.5q123 0 179 74t56 196v156z" />
<glyph unicode="&#x130;" horiz-adv-x="610" d="M422 1550h-242v222h242v-222zM172 1393h266v-1393h-266v1393z" />
<glyph unicode="&#x131;" horiz-adv-x="571" d="M158 0v1044h256v-1044h-256z" />
<glyph unicode="&#x141;" horiz-adv-x="1165" d="M274 477l-217 -127v219l217 127v697h267v-543l331 194v-219l-331 -194v-406h589v-225h-856v477z" />
<glyph unicode="&#x142;" horiz-adv-x="733" d="M498 709v-709h-256v600l-176 -102v188l176 102v605h256v-496l176 102v-188z" />
<glyph unicode="&#x143;" horiz-adv-x="1431" d="M676 1772h287l-228 -250h-211zM995 332v1061h265v-1393h-400l-416 1063h-8v-1063h-264v1393h399l416 -1061h8z" />
<glyph unicode="&#x144;" horiz-adv-x="1214" d="M584 1423h286l-227 -249h-211zM414 893q47 84 122.5 130t186.5 46q176 0 259 -102.5t83 -282.5v-684h-256v666q0 92 -39 143t-131 51q-106 0 -165.5 -70.5t-59.5 -185.5v-604h-256v1044h256v-151z" />
<glyph unicode="&#x147;" horiz-adv-x="1431" d="M715 1653l96 119h211l-164 -250h-285l-161 250h206zM995 332v1061h265v-1393h-400l-416 1063h-8v-1063h-264v1393h399l416 -1061h8z" />
<glyph unicode="&#x148;" horiz-adv-x="1214" d="M623 1305l96 118h211l-164 -249h-285l-162 249h207zM414 893q47 84 122.5 130t186.5 46q176 0 259 -102.5t83 -282.5v-684h-256v666q0 92 -39 143t-131 51q-106 0 -165.5 -70.5t-59.5 -185.5v-604h-256v1044h256v-151z" />
<glyph unicode="&#x150;" horiz-adv-x="1466" d="M940 1772h287l-217 -250h-211zM545 1772h286l-217 -250h-211zM733 195q70 0 130.5 18t105.5 55t71.5 90.5t26.5 122.5v430q0 70 -26.5 123t-71.5 90t-105.5 55.5t-130.5 18.5t-130 -18.5t-105 -55.5t-72 -90t-27 -123v-430q0 -70 27 -123t72 -90t105 -55t130 -18z M1354 696q0 -358 -162 -542.5t-459 -184.5t-458.5 184.5t-161.5 542.5t161.5 542.5t458.5 184.5t459 -184.5t162 -542.5z" />
<glyph unicode="&#x151;" horiz-adv-x="1187" d="M801 1423h286l-217 -249h-211zM406 1423h286l-217 -249h-211zM817 674q0 96 -63.5 146t-159.5 50t-159.5 -51t-63.5 -145v-303q0 -94 63.5 -145.5t159.5 -51.5t159.5 50t63.5 147v303zM1083 522q0 -123 -32.5 -223t-95 -173t-153.5 -112t-208 -39t-208 39t-153.5 112 t-95.5 173t-33 223t33 223.5t95.5 173t153.5 111.5t208 39t208 -39t153.5 -111.5t95 -173t32.5 -223.5z" />
<glyph unicode="&#x152;" horiz-adv-x="2140" d="M733 195q70 0 130.5 18t105.5 55t71.5 90.5t26.5 122.5v430q0 70 -26.5 123t-71.5 90t-105.5 55.5t-130.5 18.5t-130 -18.5t-105 -55.5t-72 -90t-27 -123v-430q0 -70 27 -123t72 -90t105 -55t130 -18zM1067 57q-139 -88 -334 -88q-297 0 -458.5 184.5t-161.5 542.5 t161.5 542.5t458.5 184.5q195 0 334 -88v58h958v-226h-692v-342h598v-225h-598v-375h692v-225h-958v57z" />
<glyph unicode="&#x153;" horiz-adv-x="1873" d="M1104 639h409v37q0 86 -58 140t-146 54t-146.5 -54t-58.5 -140v-37zM817 674q0 96 -63.5 146t-159.5 50t-159.5 -51t-63.5 -145v-303q0 -94 63.5 -145.5t159.5 -51.5t159.5 50t63.5 147v303zM963 909q63 78 149 119t197 41q106 0 192 -38t147.5 -104.5t94.5 -158.5 t33 -199v-129h-672v-69q0 -94 61.5 -145.5t145.5 -51.5t137 44t63 124h256q-25 -174 -146.5 -270.5t-311.5 -96.5q-113 0 -201 41t-150 117q-61 -76 -153 -117t-211 -41q-117 0 -208 39t-153.5 112t-95.5 173t-33 223t33 223.5t95.5 173t153.5 111.5t208 39q121 0 214.5 -41 t154.5 -119z" />
<glyph unicode="&#x158;" horiz-adv-x="1298" d="M633 1653l96 119h211l-164 -250h-284l-162 250h207zM774 754q125 0 125 139v143q0 70 -27.5 100.5t-97.5 30.5h-336v-413h336zM438 535v-535h-266v1393h567q223 0 330 -105.5t107 -324.5q0 -166 -79 -266.5t-220 -139.5l319 -557h-295l-293 535h-170z" />
<glyph unicode="&#x159;" horiz-adv-x="792" d="M408 1305l96 118h211l-164 -249h-285l-162 249h207zM158 1044h583v-200h-327v-844h-256v1044z" />
<glyph unicode="&#x15a;" horiz-adv-x="1286" d="M643 1772h287l-228 -250h-210zM633 1204q-111 0 -174.5 -44t-63.5 -120q0 -80 49.5 -121.5t149.5 -68.5l237 -62q178 -47 269.5 -142t91.5 -267q0 -96 -39 -172t-110.5 -129t-171 -81t-218.5 -28q-117 0 -216 24.5t-174 78t-121 138.5t-54 206h266q16 -123 94 -175.5 t201 -52.5q117 0 197 48.5t80 140.5q0 74 -46 118t-141 68l-272 72q-172 45 -255 147.5t-83 255.5q0 84 36 155t101.5 122t159.5 79.5t211 28.5q106 0 197.5 -24.5t159 -75.5t110.5 -131t53 -188h-266q-6 57 -29.5 96t-58.5 62.5t-79 32.5t-91 9z" />
<glyph unicode="&#x15b;" horiz-adv-x="1056" d="M518 1423h287l-227 -249h-211zM692 606q57 -12 108.5 -35.5t88.5 -60.5t58.5 -88t21.5 -121q0 -68 -29 -127t-84 -103t-136 -70t-185 -26q-209 0 -323 92.5t-122 264.5h256q16 -158 189 -158q74 0 126 27.5t52 87.5q0 57 -43 82.5t-113 40.5l-180 39q-262 57 -262 299 q0 68 27.5 126t79.5 101t127 67.5t171 24.5q178 0 292 -86t122 -260h-256q-4 74 -47 110.5t-111 36.5q-66 0 -107.5 -28.5t-41.5 -79.5t31.5 -75.5t82.5 -35.5z" />
<glyph unicode="&#x15e;" horiz-adv-x="1286" d="M399 -195h168v134h174v-287h-342v153zM633 1204q-111 0 -174.5 -44t-63.5 -120q0 -80 49.5 -121.5t149.5 -68.5l237 -62q178 -47 269.5 -142t91.5 -267q0 -96 -39 -172t-110.5 -129t-171 -81t-218.5 -28q-117 0 -216 24.5t-174 78t-121 138.5t-54 206h266 q16 -123 94 -175.5t201 -52.5q117 0 197 48.5t80 140.5q0 74 -46 118t-141 68l-272 72q-172 45 -255 147.5t-83 255.5q0 84 36 155t101.5 122t159.5 79.5t211 28.5q106 0 197.5 -24.5t159 -75.5t110.5 -131t53 -188h-266q-6 57 -29.5 96t-58.5 62.5t-79 32.5t-91 9z" />
<glyph unicode="&#x15f;" horiz-adv-x="1056" d="M274 -195h168v134h174v-287h-342v153zM692 606q57 -12 108.5 -35.5t88.5 -60.5t58.5 -88t21.5 -121q0 -68 -29 -127t-84 -103t-136 -70t-185 -26q-209 0 -323 92.5t-122 264.5h256q16 -158 189 -158q74 0 126 27.5t52 87.5q0 57 -43 82.5t-113 40.5l-180 39 q-262 57 -262 299q0 68 27.5 126t79.5 101t127 67.5t171 24.5q178 0 292 -86t122 -260h-256q-4 74 -47 110.5t-111 36.5q-66 0 -107.5 -28.5t-41.5 -79.5t31.5 -75.5t82.5 -35.5z" />
<glyph unicode="&#x160;" horiz-adv-x="1286" d="M643 1683l96 119h211l-164 -250h-284l-162 250h207zM633 1204q-111 0 -174.5 -44t-63.5 -120q0 -80 49.5 -121.5t149.5 -68.5l237 -62q178 -47 269.5 -142t91.5 -267q0 -96 -39 -172t-110.5 -129t-171 -81t-218.5 -28q-117 0 -216 24.5t-174 78t-121 138.5t-54 206h266 q16 -123 94 -175.5t201 -52.5q117 0 197 48.5t80 140.5q0 74 -46 118t-141 68l-272 72q-172 45 -255 147.5t-83 255.5q0 84 36 155t101.5 122t159.5 79.5t211 28.5q106 0 197.5 -24.5t159 -75.5t110.5 -131t53 -188h-266q-6 57 -29.5 96t-58.5 62.5t-79 32.5t-91 9z" />
<glyph unicode="&#x161;" horiz-adv-x="1056" d="M518 1305l96 118h211l-163 -249h-285l-162 249h207zM692 606q57 -12 108.5 -35.5t88.5 -60.5t58.5 -88t21.5 -121q0 -68 -29 -127t-84 -103t-136 -70t-185 -26q-209 0 -323 92.5t-122 264.5h256q16 -158 189 -158q74 0 126 27.5t52 87.5q0 57 -43 82.5t-113 40.5l-180 39 q-262 57 -262 299q0 68 27.5 126t79.5 101t127 67.5t171 24.5q178 0 292 -86t122 -260h-256q-4 74 -47 110.5t-111 36.5q-66 0 -107.5 -28.5t-41.5 -79.5t31.5 -75.5t82.5 -35.5z" />
<glyph unicode="&#x162;" horiz-adv-x="1155" d="M322 -195h167v134h175v-287h-342v153zM39 1393h1077v-226h-405v-1167h-267v1167h-405v226z" />
<glyph unicode="&#x163;" horiz-adv-x="868" d="M258 -195h168v134h174v-287h-342v153zM522 199h260v-199h-516v846h-207v198h207v349h256v-349h260v-198h-260v-647z" />
<glyph unicode="&#x164;" horiz-adv-x="1155" d="M571 1653l97 119h211l-164 -250h-285l-162 250h207zM39 1393h1077v-226h-405v-1167h-267v1167h-405v226z" />
<glyph unicode="&#x165;" horiz-adv-x="1130" d="M870 1098v295h295v-295l-153 -271h-135l147 271h-154zM522 199h260v-199h-516v846h-207v198h207v349h256v-349h260v-198h-260v-647z" />
<glyph unicode="&#x16e;" horiz-adv-x="1404" d="M784 1698q0 35 -23.5 58.5t-58.5 23.5t-59.5 -23.5t-24.5 -58.5t25 -59.5t59 -24.5q35 0 58.5 24.5t23.5 59.5zM496 1698q0 86 60 143t146 57t145.5 -57t59.5 -143t-59.5 -144.5t-145.5 -58.5q-43 0 -79.5 15.5t-65.5 43t-45 64.5t-16 80zM983 1393h264v-897 q0 -121 -38 -218.5t-108.5 -166t-171 -105.5t-227.5 -37t-227 37t-171 104.5t-108.5 165t-37.5 220.5v897h266v-908q0 -135 69.5 -212.5t208.5 -77.5q141 0 211 76.5t70 213.5v908z" />
<glyph unicode="&#x16f;" horiz-adv-x="1204" d="M678 1350q0 35 -23.5 58.5t-58.5 23.5t-59.5 -24t-24.5 -58q0 -35 24.5 -59.5t59.5 -24.5t58.5 24.5t23.5 59.5zM389 1350q0 86 60.5 143t146.5 57t145.5 -57t59.5 -143t-59.5 -144.5t-145.5 -58.5q-43 0 -80 15.5t-65.5 43t-45 64.5t-16.5 80zM791 152 q-47 -86 -122 -131.5t-186 -45.5q-168 0 -252 101.5t-84 283.5v684h256v-665q0 -92 36 -143.5t128 -51.5q104 0 164 71t60 185v604h256v-1044h-256v152z" />
<glyph unicode="&#x170;" horiz-adv-x="1404" d="M909 1772h287l-217 -250h-211zM514 1772h287l-217 -250h-211zM983 1393h264v-897q0 -121 -38 -218.5t-108.5 -166t-171 -105.5t-227.5 -37t-227 37t-171 104.5t-108.5 165t-37.5 220.5v897h266v-908q0 -135 69.5 -212.5t208.5 -77.5q141 0 211 76.5t70 213.5v908z" />
<glyph unicode="&#x171;" horiz-adv-x="1204" d="M772 1423h287l-217 -249h-211zM377 1423h287l-218 -249h-210zM791 152q-47 -86 -122 -131.5t-186 -45.5q-168 0 -252 101.5t-84 283.5v684h256v-665q0 -92 36 -143.5t128 -51.5q104 0 164 71t60 185v604h256v-1044h-256v152z" />
<glyph unicode="&#x178;" horiz-adv-x="1249" d="M958 1559h-241v221h241v-221zM537 1559h-242v221h242v-221zM27 1393h301l299 -578l299 578h297l-465 -848v-545h-266v545z" />
<glyph unicode="&#x179;" horiz-adv-x="1253" d="M629 1772h286l-227 -250h-211zM1141 1171l-717 -946h713v-225h-1039v221l713 946h-680v226h1010v-222z" />
<glyph unicode="&#x17a;" horiz-adv-x="1062" d="M543 1423h286l-227 -249h-211zM958 199v-199h-862v199l535 647h-498v198h811v-198l-541 -647h555z" />
<glyph unicode="&#x17b;" horiz-adv-x="1253" d="M760 1550h-242v222h242v-222zM1141 1171l-717 -946h713v-225h-1039v221l713 946h-680v226h1010v-222z" />
<glyph unicode="&#x17c;" horiz-adv-x="1062" d="M643 1202h-242v221h242v-221zM958 199v-199h-862v199l535 647h-498v198h811v-198l-541 -647h555z" />
<glyph unicode="&#x17d;" horiz-adv-x="1253" d="M616 1683l97 119h211l-164 -250h-285l-162 250h207zM1141 1171l-717 -946h713v-225h-1039v221l713 946h-680v226h1010v-222z" />
<glyph unicode="&#x17e;" horiz-adv-x="1062" d="M514 1305l96 118h211l-164 -249h-284l-162 249h207zM958 199v-199h-862v199l535 647h-498v198h811v-198l-541 -647h555z" />
<glyph unicode="&#x218;" horiz-adv-x="1286" d="M633 1204q-111 0 -174.5 -44t-63.5 -120q0 -80 49.5 -121.5t149.5 -68.5l237 -62q178 -47 269.5 -142t91.5 -267q0 -96 -39 -172t-110.5 -129t-171 -81t-218.5 -28q-117 0 -216 24.5t-174 78t-121 138.5t-54 206h266q16 -123 94 -175.5t201 -52.5q117 0 197 48.5 t80 140.5q0 74 -46 118t-141 68l-272 72q-172 45 -255 147.5t-83 255.5q0 84 36 155t101.5 122t159.5 79.5t211 28.5q106 0 197.5 -24.5t159 -75.5t110.5 -131t53 -188h-266q-6 57 -29.5 96t-58.5 62.5t-79 32.5t-91 9zM768 -348l-129 -225h-107l123 225h-129v246h242v-246z " />
<glyph unicode="&#x219;" horiz-adv-x="1056" d="M692 606q57 -12 108.5 -35.5t88.5 -60.5t58.5 -88t21.5 -121q0 -68 -29 -127t-84 -103t-136 -70t-185 -26q-209 0 -323 92.5t-122 264.5h256q16 -158 189 -158q74 0 126 27.5t52 87.5q0 57 -43 82.5t-113 40.5l-180 39q-262 57 -262 299q0 68 27.5 126t79.5 101t127 67.5 t171 24.5q178 0 292 -86t122 -260h-256q-4 74 -47 110.5t-111 36.5q-66 0 -107.5 -28.5t-41.5 -79.5t31.5 -75.5t82.5 -35.5zM651 -348l-129 -225h-106l123 225h-129v246h241v-246z" />
<glyph unicode="&#x21a;" horiz-adv-x="1155" d="M39 1393h1077v-226h-405v-1167h-267v1167h-405v226zM696 -348l-129 -225h-106l123 225h-129v246h241v-246z" />
<glyph unicode="&#x21b;" horiz-adv-x="868" d="M598 -348l-129 -225h-107l123 225h-129v246h242v-246zM522 199h260v-199h-516v846h-207v198h207v349h256v-349h260v-198h-260v-647z" />
<glyph unicode="&#x2c6;" horiz-adv-x="641" d="M221 1174h-207l162 249h285l164 -249h-211l-97 118z" />
<glyph unicode="&#x2da;" horiz-adv-x="628" d="M397 1350q0 35 -23.5 58.5t-58.5 23.5t-59.5 -24t-24.5 -58q0 -35 25 -59.5t59 -24.5q35 0 58.5 24.5t23.5 59.5zM109 1350q0 86 60 143t146 57t145.5 -57t59.5 -143t-59.5 -144.5t-145.5 -58.5q-43 0 -79.5 15.5t-65.5 43t-45 64.5t-16 80z" />
<glyph unicode="&#x2dc;" horiz-adv-x="630" d="M655 1407q0 -100 -50 -165.5t-152 -65.5q-39 0 -77 14t-72 30.5t-64.5 31t-53.5 14.5q-66 0 -65 -74h-144q0 100 50.5 165.5t152.5 65.5q39 0 77 -14t71.5 -30.5t64.5 -31t53 -14.5q66 0 66 74h143z" />
<glyph unicode="&#x2000;" horiz-adv-x="964" />
<glyph unicode="&#x2001;" horiz-adv-x="1929" />
<glyph unicode="&#x2002;" horiz-adv-x="964" />
<glyph unicode="&#x2003;" horiz-adv-x="1929" />
<glyph unicode="&#x2004;" horiz-adv-x="643" />
<glyph unicode="&#x2005;" horiz-adv-x="482" />
<glyph unicode="&#x2006;" horiz-adv-x="321" />
<glyph unicode="&#x2007;" horiz-adv-x="321" />
<glyph unicode="&#x2008;" horiz-adv-x="241" />
<glyph unicode="&#x2009;" horiz-adv-x="385" />
<glyph unicode="&#x200a;" horiz-adv-x="107" />
<glyph unicode="&#x2010;" horiz-adv-x="864" d="M145 659h574v-208h-574v208z" />
<glyph unicode="&#x2011;" horiz-adv-x="864" d="M145 659h574v-208h-574v208z" />
<glyph unicode="&#x2012;" horiz-adv-x="864" d="M145 659h574v-208h-574v208z" />
<glyph unicode="&#x2013;" horiz-adv-x="1253" d="M145 659h963v-208h-963v208z" />
<glyph unicode="&#x2014;" horiz-adv-x="2215" d="M145 659h1926v-208h-1926v208z" />
<glyph unicode="&#x2018;" horiz-adv-x="575" d="M432 1122v-295h-295v295l154 271h135l-147 -271h153z" />
<glyph unicode="&#x2019;" horiz-adv-x="561" d="M147 1098v295h295v-295l-153 -271h-135l147 271h-154z" />
<glyph unicode="&#x201a;" horiz-adv-x="585" d="M145 0v295h295v-295l-153 -270h-135l147 270h-154z" />
<glyph unicode="&#x201c;" horiz-adv-x="1073" d="M432 1122v-295h-295v295l154 271h135l-147 -271h153zM930 1122v-295h-295v295l153 271h136l-148 -271h154z" />
<glyph unicode="&#x201d;" horiz-adv-x="1058" d="M645 1098v295h295v-295l-154 -271h-135l148 271h-154zM147 1098v295h295v-295l-153 -271h-135l147 271h-154z" />
<glyph unicode="&#x201e;" horiz-adv-x="1083" d="M643 0v295h295v-295l-154 -270h-135l148 270h-154zM145 0v295h295v-295l-153 -270h-135l147 270h-154z" />
<glyph unicode="&#x2022;" horiz-adv-x="1046" d="M176 696q0 72 26.5 135.5t74 110.5t111 74.5t134.5 27.5q72 0 135.5 -27.5t110.5 -74.5t74.5 -110.5t27.5 -135.5t-27.5 -135t-74.5 -110.5t-110.5 -74t-135.5 -26.5t-135 26.5t-110.5 74t-74 110.5t-26.5 135z" />
<glyph unicode="&#x2026;" horiz-adv-x="1937" d="M1792 0h-295v295h295v-295zM1116 0h-295v295h295v-295zM440 0h-295v295h295v-295z" />
<glyph unicode="&#x202f;" horiz-adv-x="385" />
<glyph unicode="&#x2039;" horiz-adv-x="681" d="M326 145l-220 381l220 381h235l-199 -381l199 -381h-235z" />
<glyph unicode="&#x203a;" horiz-adv-x="681" d="M121 145l198 381l-198 381h235l219 -381l-219 -381h-235z" />
<glyph unicode="&#x205f;" horiz-adv-x="482" />
<glyph unicode="&#x20ac;" d="M74 924h106q16 113 55 205t103.5 157.5t157 101t219.5 35.5q109 0 191.5 -29.5t141 -81.5t92.5 -125t40 -161h-256q-14 96 -65.5 140t-158.5 44q-133 0 -190 -78.5t-59 -207.5h442l-55 -162h-387v-125h346l-58 -162h-288q2 -135 66.5 -214t182.5 -79q111 0 161 46t65 157 h256q-14 -195 -134 -305.5t-343 -110.5q-121 0 -211.5 36t-155 101.5t-103 158.5t-57.5 210h-176l57 162h105v125h-146z" />
<glyph unicode="&#x2122;" horiz-adv-x="1794" d="M1382 1393h250v-697h-176v422l-143 -422h-166l-141 422v-422h-177v697h254l150 -447zM131 1393h594v-154h-209v-543h-176v543h-209v154z" />
<glyph unicode="&#x2190;" horiz-adv-x="1728" d="M901 1044l-416 -417h1076v-209h-1076l416 -418h-287l-446 449v147l446 448h287z" />
<glyph unicode="&#x2192;" horiz-adv-x="1728" d="M1114 1044l447 -448v-147l-447 -449h-287l416 418h-1075v209h1075l-416 417h287z" />
<glyph unicode="&#x25fc;" horiz-adv-x="1044" d="M0 1044h1044v-1044h-1044v1044z" />
<glyph horiz-adv-x="638" d="M197 1741h245v-2089h-245v2089z" />
<glyph d="M1139 287l-142 -142l-383 383l-381 -383l-141 142l383 381l-383 383l141 141l381 -383l383 383l140 -139l-383 -383z" />
<glyph d="M82 569v197h430v424h205v-424h430v-197h-430v-424h-205v424h-430z" />
<glyph d="M743 147h-258v261h258v-261zM743 932h-258v260h258v-260zM1147 571h-1065v197h1065v-197z" />
<glyph d="M82 373v196h1065v-196h-1065zM82 766v197h1065v-197h-1065z" />
<glyph d="M1114 981l-780 -311l780 -312v-211l-1065 428v189l1065 428v-211z" />
<glyph d="M113 1192l1065 -428v-189l-1065 -428v211l780 312l-780 311v211z" />
<glyph horiz-adv-x="1929" d="M719 416v561h561v-363h256v580h-1073v-995h817v-199h-1073v1393h1585v-977h-1073z" />
<glyph d="M1147 147h-1065v197h1065v-197zM82 694v197h420v301h205v-301h440v-197h-440v-280h-205v280h-420z" />
<glyph d="M911 768h-837v197h1044v-570h-207v373z" />
<glyph horiz-adv-x="1167" d="M600 295l199 381l-199 381h236l219 -381l-219 -381h-236zM125 295l199 381l-199 381h235l220 -381l-220 -381h-235z" />
<glyph horiz-adv-x="692" d="M125 295l199 381l-199 381h235l220 -381l-220 -381h-235z" />
<glyph horiz-adv-x="1167" d="M332 295l-219 381l219 381h235l-198 -381l198 -381h-235zM807 295l-219 381l219 381h235l-198 -381l198 -381h-235z" />
<glyph horiz-adv-x="692" d="M332 295l-219 381l219 381h235l-198 -381l198 -381h-235z" />
<glyph horiz-adv-x="794" d="M700 1606v-193h-256v-1429h256v-193h-501v1815h501z" />
<glyph horiz-adv-x="864" d="M266 793v811h502v-193h-256v-618h-246zM72 600v193h194v-193h246v-618h256v-193h-502v811h-194z" />
<glyph horiz-adv-x="700" d="M365 481q0 -170 76.5 -344t207.5 -348h-235q-70 90 -126.5 186.5t-96 206t-61 236.5t-21.5 278q0 152 21.5 279t61 236.5t96 205.5t126.5 187h235q-139 -188 -211.5 -355.5t-72.5 -337.5v-430z" />
<glyph horiz-adv-x="796" d="M598 1604v-1815h-502v193h256v1429h-256v193h502z" />
<glyph horiz-adv-x="864" d="M598 600v-811h-502v193h256v618h246zM793 793v-193h-195v193h-246v618h-256v193h502v-811h195z" />
<glyph horiz-adv-x="700" d="M336 911q0 170 -73 337t-212 356h236q70 -90 126 -186.5t96 -206t61.5 -236.5t21.5 -279t-21.5 -278.5t-61.5 -236t-96.5 -206t-125.5 -186.5h-236q131 174 208 348t77 344v430z" />
<glyph horiz-adv-x="1261" d="M150 788h962v-208h-962v208z" />
<glyph horiz-adv-x="2224" d="M150 788h1925v-208h-1925v208z" />
<glyph horiz-adv-x="872" d="M150 788h573v-208h-573v208z" />
<glyph horiz-adv-x="872" d="M150 788h573v-208h-573v208z" />
</font>
</defs>
</svg>
